<?xml version="1.0" encoding="UTF-8" standalone="no"?>
<svg
   xmlns:dc="http://purl.org/dc/elements/1.1/"
   xmlns:cc="http://creativecommons.org/ns#"
   xmlns:rdf="http://www.w3.org/1999/02/22-rdf-syntax-ns#"
   xmlns:svg="http://www.w3.org/2000/svg"
   xmlns="http://www.w3.org/2000/svg"
   xmlns:sodipodi="http://sodipodi.sourceforge.net/DTD/sodipodi-0.dtd"
   xmlns:inkscape="http://www.inkscape.org/namespaces/inkscape"
   version="1.1"
   id="Capa_1"
   x="0px"
   y="0px"
   viewBox="0 0 512 512"
   style="enable-background:new 0 0 512 512;"
   xml:space="preserve"
   sodipodi:docname="new-icon-email-color.svg"
   inkscape:version="1.0 (4035a4fb49, 2020-05-01)"><metadata
   id="metadata86"><rdf:RDF><cc:Work
       rdf:about=""><dc:format>image/svg+xml</dc:format><dc:type
         rdf:resource="http://purl.org/dc/dcmitype/StillImage" /><dc:title /></cc:Work></rdf:RDF></metadata><defs
   id="defs84" /><sodipodi:namedview
   inkscape:document-rotation="0"
   pagecolor="#ffffff"
   bordercolor="#666666"
   borderopacity="1"
   objecttolerance="10"
   gridtolerance="10"
   guidetolerance="10"
   inkscape:pageopacity="0"
   inkscape:pageshadow="2"
   inkscape:window-width="1366"
   inkscape:window-height="686"
   id="namedview82"
   showgrid="false"
   inkscape:zoom="0.95898438"
   inkscape:cx="431.18534"
   inkscape:cy="256"
   inkscape:window-x="0"
   inkscape:window-y="45"
   inkscape:window-maximized="1"
   inkscape:current-layer="Capa_1" />
<g
   id="g49"
   style="fill:#008080">
	<g
   id="g47"
   style="fill:#008080">
		<path
   d="M432,0H80C35.888,0,0,35.888,0,80v352c0,44.112,35.888,80,80,80h352c44.112,0,80-35.888,80-80V80    C512,35.888,476.112,0,432,0z M472,432c0,22.056-17.944,40-40,40H80c-22.056,0-40-17.944-40-40V80c0-22.056,17.944-40,40-40h352    c22.056,0,40,17.944,40,40V432z"
   id="path45"
   style="fill:#008080" />
	</g>
</g>
<g
   id="g51"
   style="fill:#008080">
</g>
<g
   id="g53"
   style="fill:#008080">
</g>
<g
   id="g55"
   style="fill:#008080">
</g>
<g
   id="g57"
   style="fill:#008080">
</g>
<g
   id="g59"
   style="fill:#008080">
</g>
<g
   id="g61"
   style="fill:#008080">
</g>
<g
   id="g63"
   style="fill:#008080">
</g>
<g
   id="g65"
   style="fill:#008080">
</g>
<g
   id="g67"
   style="fill:#008080">
</g>
<g
   id="g69"
   style="fill:#008080">
</g>
<g
   id="g71"
   style="fill:#008080">
</g>
<g
   id="g73"
   style="fill:#008080">
</g>
<g
   id="g75"
   style="fill:#008080">
</g>
<g
   id="g77"
   style="fill:#008080">
</g>
<g
   id="g79"
   style="fill:#008080">
</g>
<g
   id="g8"
   transform="matrix(0.75,0,0,0.75,-136.72727,-86.545453)"
   style="fill:#008080" /><g
   id="g10"
   transform="matrix(0.75,0,0,0.75,-136.72727,-86.545453)"
   style="fill:#008080" /><g
   id="g12"
   transform="matrix(0.75,0,0,0.75,-136.72727,-86.545453)"
   style="fill:#008080" /><g
   id="g14"
   transform="matrix(0.75,0,0,0.75,-136.72727,-86.545453)"
   style="fill:#008080" /><g
   id="g16"
   transform="matrix(0.75,0,0,0.75,-136.72727,-86.545453)"
   style="fill:#008080" /><g
   id="g18"
   transform="matrix(0.75,0,0,0.75,-136.72727,-86.545453)"
   style="fill:#008080" /><g
   id="g20"
   transform="matrix(0.75,0,0,0.75,-136.72727,-86.545453)"
   style="fill:#008080" /><g
   id="g22"
   transform="matrix(0.75,0,0,0.75,-136.72727,-86.545453)"
   style="fill:#008080" /><g
   id="g24"
   transform="matrix(0.75,0,0,0.75,-136.72727,-86.545453)"
   style="fill:#008080" /><g
   id="g26"
   transform="matrix(0.75,0,0,0.75,-136.72727,-86.545453)"
   style="fill:#008080" /><g
   id="g28"
   transform="matrix(0.75,0,0,0.75,-136.72727,-86.545453)"
   style="fill:#008080" /><g
   id="g30"
   transform="matrix(0.75,0,0,0.75,-136.72727,-86.545453)"
   style="fill:#008080" /><g
   id="g32"
   transform="matrix(0.75,0,0,0.75,-136.72727,-86.545453)"
   style="fill:#008080" /><g
   id="g34"
   transform="matrix(0.75,0,0,0.75,-136.72727,-86.545453)"
   style="fill:#008080" /><g
   id="g36"
   transform="matrix(0.75,0,0,0.75,-136.72727,-86.545453)"
   style="fill:#008080" /><g
   transform="matrix(0.7,0,0,0.7,76.8,76.8)"
   id="g1611"
   style="fill:#008080"><g
     id="g966"
     style="fill:#008080"><g
       id="g964"
       style="fill:#008080"><path
         id="path962"
         d="M 467,61 H 45 c -6.927,0 -13.412,1.703 -19.279,4.51 L 255,294.789 306.389,245.402 c 0,0 0.004,-0.005 0.005,-0.007 10e-4,-0.002 0.005,-0.004 0.005,-0.004 L 486.286,65.514 C 480.418,62.705 473.929,61 467,61 Z"
         style="fill:#008080" /></g></g><g
     id="g972"
     style="fill:#008080"><g
       id="g970"
       style="fill:#008080"><path
         id="path968"
         d="M 507.496,86.728 338.213,256.002 507.49,425.279 C 510.297,419.412 512,412.927 512,406 V 106 c 0,-6.923 -1.699,-13.407 -4.504,-19.272 z"
         style="fill:#008080" /></g></g><g
     id="g978"
     style="fill:#008080"><g
       id="g976"
       style="fill:#008080"><path
         id="path974"
         d="M 4.51,86.721 C 1.703,92.588 0,99.073 0,106 v 300 c 0,6.923 1.701,13.409 4.506,19.274 L 173.789,256 Z"
         style="fill:#008080" /></g></g><g
     id="g984"
     style="fill:#008080"><g
       id="g982"
       style="fill:#008080"><path
         id="path980"
         d="m 317.002,277.213 -51.396,49.393 c -2.93,2.93 -6.768,4.395 -10.605,4.395 -3.837,0 -7.676,-1.465 -10.605,-4.395 L 195,277.211 25.714,446.486 C 31.582,449.295 38.071,451 45,451 h 422 c 6.927,0 13.412,-1.703 19.279,-4.51 z"
         style="fill:#008080" /></g></g><g
     id="g986"
     style="fill:#008080" /><g
     id="g988"
     style="fill:#008080" /><g
     id="g990"
     style="fill:#008080" /><g
     id="g992"
     style="fill:#008080" /><g
     id="g994"
     style="fill:#008080" /><g
     id="g996"
     style="fill:#008080" /><g
     id="g998"
     style="fill:#008080" /><g
     id="g1000"
     style="fill:#008080" /><g
     id="g1002"
     style="fill:#008080" /><g
     id="g1004"
     style="fill:#008080" /><g
     id="g1006"
     style="fill:#008080" /><g
     id="g1008"
     style="fill:#008080" /><g
     id="g1010"
     style="fill:#008080" /><g
     id="g1012"
     style="fill:#008080" /><g
     id="g1014"
     style="fill:#008080" /></g></svg>
