<?xml version="1.0" encoding="UTF-8" standalone="no"?>
<svg
   xmlns:dc="http://purl.org/dc/elements/1.1/"
   xmlns:cc="http://creativecommons.org/ns#"
   xmlns:rdf="http://www.w3.org/1999/02/22-rdf-syntax-ns#"
   xmlns:svg="http://www.w3.org/2000/svg"
   xmlns="http://www.w3.org/2000/svg"
   xmlns:sodipodi="http://sodipodi.sourceforge.net/DTD/sodipodi-0.dtd"
   xmlns:inkscape="http://www.inkscape.org/namespaces/inkscape"
   inkscape:version="1.0 (4035a4fb49, 2020-05-01)"
   sodipodi:docname="new-icon-kaggle-color.svg"
   xml:space="preserve"
   style="enable-background:new 0 0 512 512;"
   viewBox="0 0 512 512"
   y="0px"
   x="0px"
   id="Capa_1"
   version="1.1"><metadata
   id="metadata43"><rdf:RDF><cc:Work
       rdf:about=""><dc:format>image/svg+xml</dc:format><dc:type
         rdf:resource="http://purl.org/dc/dcmitype/StillImage" /><dc:title></dc:title></cc:Work></rdf:RDF></metadata><defs
   id="defs41" /><sodipodi:namedview
   inkscape:current-layer="Capa_1"
   inkscape:window-maximized="1"
   inkscape:window-y="45"
   inkscape:window-x="0"
   inkscape:cy="256"
   inkscape:cx="338.90909"
   inkscape:zoom="1.03125"
   showgrid="false"
   id="namedview39"
   inkscape:window-height="686"
   inkscape:window-width="1366"
   inkscape:pageshadow="2"
   inkscape:pageopacity="0"
   guidetolerance="10"
   gridtolerance="10"
   objecttolerance="10"
   borderopacity="1"
   bordercolor="#666666"
   pagecolor="#ffffff"
   inkscape:document-rotation="0" />
<g
   style="fill:#20beff;fill-opacity:1"
   id="g6">
	<g
   style="fill:#20beff;fill-opacity:1"
   id="g4">
		<path
   style="fill:#20beff;fill-opacity:1"
   id="path2"
   d="M432,0H80C35.888,0,0,35.888,0,80v352c0,44.112,35.888,80,80,80h352c44.112,0,80-35.888,80-80V80    C512,35.888,476.112,0,432,0z M472,432c0,22.056-17.944,40-40,40H80c-22.056,0-40-17.944-40-40V80c0-22.056,17.944-40,40-40h352    c22.056,0,40,17.944,40,40V432z" />
	</g>
</g>
<g
   style="fill:#20beff;fill-opacity:1"
   id="g8">
</g>
<g
   style="fill:#20beff;fill-opacity:1"
   id="g10">
</g>
<g
   style="fill:#20beff;fill-opacity:1"
   id="g12">
</g>
<g
   style="fill:#20beff;fill-opacity:1"
   id="g14">
</g>
<g
   style="fill:#20beff;fill-opacity:1"
   id="g16">
</g>
<g
   style="fill:#20beff;fill-opacity:1"
   id="g18">
</g>
<g
   style="fill:#20beff;fill-opacity:1"
   id="g20">
</g>
<g
   style="fill:#20beff;fill-opacity:1"
   id="g22">
</g>
<g
   style="fill:#20beff;fill-opacity:1"
   id="g24">
</g>
<g
   style="fill:#20beff;fill-opacity:1"
   id="g26">
</g>
<g
   style="fill:#20beff;fill-opacity:1"
   id="g28">
</g>
<g
   style="fill:#20beff;fill-opacity:1"
   id="g30">
</g>
<g
   style="fill:#20beff;fill-opacity:1"
   id="g32">
</g>
<g
   style="fill:#20beff;fill-opacity:1"
   id="g34">
</g>
<g
   style="fill:#20beff;fill-opacity:1"
   id="g36">
</g>
<path
   style="stroke-width:0.6;fill:#20beff;fill-opacity:1"
   d="m 342.64,403.27 -87.48,-108.72 83.88,-81.18 c 1.56,-1.62 1.02,-6.3 -3.18,-6.3 h -41.52 c -2.1,0 -4.2,1.08 -6.3,3.18 l -79.38,80.22 v -183.6 q 0,-4.5 -4.5,-4.5 h -31.14 q -4.5,0 -4.5,4.5 v 298.2 q 0,4.5 4.5,4.5 h 31.14 q 4.5,0 4.5,-4.5 v -65.4 l 18.48,-17.58 66.3,84.36 c 1.8,2.1 3.9,3.18 6.3,3.18 h 40.14 q 3.15,0 3.6,-1.8 z"
   id="path45" /></svg>
