<?xml version="1.0" encoding="UTF-8" standalone="no"?>
<svg
   xmlns:dc="http://purl.org/dc/elements/1.1/"
   xmlns:cc="http://creativecommons.org/ns#"
   xmlns:rdf="http://www.w3.org/1999/02/22-rdf-syntax-ns#"
   xmlns:svg="http://www.w3.org/2000/svg"
   xmlns="http://www.w3.org/2000/svg"
   xmlns:sodipodi="http://sodipodi.sourceforge.net/DTD/sodipodi-0.dtd"
   xmlns:inkscape="http://www.inkscape.org/namespaces/inkscape"
   width="399.34399"
   height="136.6152"
   viewBox="0 0 105.65976 36.146106"
   version="1.1"
   id="svg8"
   inkscape:version="1.0 (4035a4fb49, 2020-05-01)"
   sodipodi:docname="logo.svg"
   inkscape:export-filename="/home/pb/Development/GitHub/logo.png"
   inkscape:export-xdpi="138.66696"
   inkscape:export-ydpi="138.66696">
  <defs
     id="defs2" />
  <sodipodi:namedview
     id="base"
     pagecolor="#ffffff"
     bordercolor="#666666"
     borderopacity="1.0"
     inkscape:pageopacity="0.0"
     inkscape:pageshadow="2"
     inkscape:zoom="2.9924076"
     inkscape:cx="178.94375"
     inkscape:cy="67.806333"
     inkscape:document-units="mm"
     inkscape:current-layer="layer1"
     inkscape:document-rotation="0"
     showgrid="false"
     inkscape:window-width="1366"
     inkscape:window-height="686"
     inkscape:window-x="0"
     inkscape:window-y="45"
     inkscape:window-maximized="1"
     fit-margin-right="1"
     fit-margin-top="25"
     units="px"
     fit-margin-bottom="25"
     fit-margin-left="1" />
  <metadata
     id="metadata5">
    <rdf:RDF>
      <cc:Work
         rdf:about="">
        <dc:format>image/svg+xml</dc:format>
        <dc:type
           rdf:resource="http://purl.org/dc/dcmitype/StillImage" />
        <dc:title></dc:title>
      </cc:Work>
    </rdf:RDF>
  </metadata>
  <g
     transform="translate(-52.170118,-130.42695)"
     style="display:inline"
     inkscape:label="Layer 1"
     inkscape:groupmode="layer"
     id="layer1">
    <g
       transform="translate(0,0.13123972)"
       id="g23">
      <g
         style="font-style:normal;font-variant:normal;font-weight:normal;font-stretch:normal;font-size:10.5833px;line-height:0.95;font-family:oxygen;-inkscape-font-specification:oxygen;fill:#000000;fill-opacity:1;stroke:none;stroke-width:0.264583"
         id="text12"
         aria-label="Data Science &amp; Machine Learning">
        <path
           id="path25"
           style="font-style:normal;font-variant:normal;font-weight:normal;font-stretch:normal;font-size:6.35px;font-family:oxygen;-inkscape-font-specification:oxygen;stroke-width:0.264583"
           d="m 55.571461,154.69661 q 0,-0.96119 -0.496094,-1.39837 -0.496094,-0.43718 -1.444873,-0.43718 h -0.719336 v 3.64939 h 0.809253 q 0.905371,0 1.37666,-0.45579 0.47439,-0.45888 0.47439,-1.35805 z m 0.573608,-0.0155 q 0,1.11932 -0.63562,1.70843 -0.63562,0.58911 -1.773535,0.58911 h -1.361157 v -4.58577 h 1.27124 q 0.573608,0 1.026294,0.13643 0.452685,0.13332 0.784448,0.40927 0.334863,0.27286 0.511597,0.71624 0.176733,0.44028 0.176733,1.02629 z" />
        <path
           id="path27"
           style="font-style:normal;font-variant:normal;font-weight:normal;font-stretch:normal;font-size:6.35px;font-family:oxygen;-inkscape-font-specification:oxygen;stroke-width:0.264583"
           d="m 57.918604,156.63137 q 0.36897,0 0.648023,-0.20154 0.282153,-0.20463 0.362768,-0.5488 v -0.57361 q -0.0155,0 -0.189135,0.0155 -0.170533,0.0155 -0.223243,0.0186 -0.672827,0.0589 -0.939477,0.22014 -0.26355,0.16123 -0.26355,0.5178 0,0.27285 0.161231,0.41238 0.16123,0.13952 0.443383,0.13952 z m 1.125513,0.34727 q -0.04651,-0.19844 -0.08992,-0.42788 -0.282153,0.28215 -0.5302,0.39067 -0.248047,0.10852 -0.58291,0.10852 -0.477491,0 -0.768946,-0.24805 -0.288354,-0.25114 -0.288354,-0.71933 0,-0.5209 0.393774,-0.77205 0.396875,-0.25114 1.141016,-0.31316 0.102319,-0.009 0.306958,-0.0248 0.207739,-0.0186 0.310059,-0.0279 v -0.30075 q 0,-0.35967 -0.167432,-0.5333 -0.167432,-0.17364 -0.5271,-0.17364 -0.502295,0 -1.013891,0.24805 -0.0155,-0.0372 -0.08062,-0.21394 -0.06511,-0.17983 -0.06821,-0.18604 0.226342,-0.12712 0.536401,-0.20153 0.313159,-0.0775 0.63562,-0.0775 0.63562,0 0.914673,0.27905 0.282153,0.27596 0.282153,0.94258 v 2.25103 z" />
        <path
           id="path29"
           style="font-style:normal;font-variant:normal;font-weight:normal;font-stretch:normal;font-size:6.35px;font-family:oxygen;-inkscape-font-specification:oxygen;stroke-width:0.264583"
           d="m 61.425367,157.04065 q -0.502295,0 -0.713135,-0.24495 -0.21084,-0.24494 -0.223242,-0.79065 v -2.04328 h -0.505395 l 0.0217,-0.34107 0.48059,-0.0434 0.176734,-0.77824 0.341064,-0.0124 v 0.79064 h 0.945679 v 0.38448 h -0.945679 v 1.95027 q 0,0.38757 0.117823,0.5457 0.117822,0.15813 0.403076,0.15813 0.102319,0 0.443383,-0.0496 l 0.02171,0.40928 q -0.36897,0.0651 -0.564307,0.0651 z" />
        <path
           id="path31"
           style="font-style:normal;font-variant:normal;font-weight:normal;font-stretch:normal;font-size:6.35px;font-family:oxygen;-inkscape-font-specification:oxygen;stroke-width:0.264583"
           d="m 63.515161,156.63137 q 0.36897,0 0.648023,-0.20154 0.282153,-0.20463 0.362768,-0.5488 v -0.57361 q -0.0155,0 -0.189135,0.0155 -0.170532,0.0155 -0.223242,0.0186 -0.672828,0.0589 -0.939478,0.22014 -0.26355,0.16123 -0.26355,0.5178 0,0.27285 0.161231,0.41238 0.16123,0.13952 0.443383,0.13952 z m 1.125513,0.34727 q -0.04651,-0.19844 -0.08992,-0.42788 -0.282153,0.28215 -0.5302,0.39067 -0.248047,0.10852 -0.58291,0.10852 -0.47749,0 -0.768945,-0.24805 -0.288355,-0.25114 -0.288355,-0.71933 0,-0.5209 0.393774,-0.77205 0.396875,-0.25114 1.141016,-0.31316 0.102319,-0.009 0.306958,-0.0248 0.207739,-0.0186 0.310059,-0.0279 v -0.30075 q 0,-0.35967 -0.167432,-0.5333 -0.167432,-0.17364 -0.5271,-0.17364 -0.502294,0 -1.013891,0.24805 -0.0155,-0.0372 -0.08062,-0.21394 -0.06511,-0.17983 -0.06821,-0.18604 0.226342,-0.12712 0.536401,-0.20153 0.313159,-0.0775 0.63562,-0.0775 0.63562,0 0.914673,0.27905 0.282153,0.27596 0.282153,0.94258 v 2.25103 z" />
        <path
           id="path33"
           style="font-style:normal;font-variant:normal;font-weight:normal;font-stretch:normal;font-size:6.35px;font-family:oxygen;-inkscape-font-specification:oxygen;stroke-width:0.264583"
           d="m 67.53042,156.22209 q 0.716236,0.35347 1.534791,0.35347 1.00769,0 1.00769,-0.91777 0,-0.29766 -0.161231,-0.48059 -0.158129,-0.18604 -0.579809,-0.29146 l -0.911572,-0.22944 q -1.044898,-0.26355 -1.044898,-1.11621 0,-0.65423 0.449585,-0.97049 0.449585,-0.31936 1.243335,-0.31936 0.415479,0 0.778247,0.0899 0.362769,0.0899 0.607715,0.24185 l -0.155029,0.43718 q -0.20774,-0.11472 -0.551905,-0.20464 -0.341064,-0.0899 -0.69143,-0.0899 -1.122412,0 -1.122412,0.77825 0,0.26355 0.170532,0.42478 0.173633,0.15813 0.517798,0.24185 l 0.871264,0.21084 q 0.558106,0.13332 0.84646,0.42788 0.288355,0.29145 0.288355,0.83095 0,0.70074 -0.430982,1.0573 -0.42788,0.35347 -1.16582,0.35347 -0.551904,0 -0.982886,-0.11162 -0.427881,-0.11472 -0.679028,-0.26975 z" />
        <path
           id="path35"
           style="font-style:normal;font-variant:normal;font-weight:normal;font-stretch:normal;font-size:6.35px;font-family:oxygen;-inkscape-font-specification:oxygen;stroke-width:0.264583"
           d="m 72.76421,157.04995 q -0.750342,0 -1.175122,-0.48679 -0.42168,-0.48679 -0.42168,-1.27434 0.0031,-0.79375 0.430982,-1.28674 0.430981,-0.4961 1.178222,-0.4961 0.26355,0 0.508497,0.0651 0.248046,0.0651 0.390673,0.17054 l -0.142627,0.40307 q -0.362768,-0.19533 -0.765844,-0.19533 -0.492993,0 -0.781348,0.35966 -0.285254,0.35967 -0.285254,0.98289 0,0.60771 0.282153,0.96428 0.285254,0.35347 0.787549,0.35347 0.399976,0 0.818555,-0.21704 l 0.06511,0.41237 q -0.337964,0.24495 -0.889868,0.24495 z" />
        <path
           id="path37"
           style="font-style:normal;font-variant:normal;font-weight:normal;font-stretch:normal;font-size:6.35px;font-family:oxygen;-inkscape-font-specification:oxygen;stroke-width:0.264583"
           d="m 74.937719,153.57729 v 3.40135 h -0.520898 v -3.40135 z m 0,-1.23713 v 0.61392 h -0.520898 v -0.61392 z" />
        <path
           id="path39"
           style="font-style:normal;font-variant:normal;font-weight:normal;font-stretch:normal;font-size:6.35px;font-family:oxygen;-inkscape-font-specification:oxygen;stroke-width:0.264583"
           d="m 77.870874,154.20671 q -0.226342,-0.27285 -0.623217,-0.27285 -0.396875,0 -0.648023,0.28216 -0.251147,0.27905 -0.294556,0.76584 h 1.79524 q 0,-0.5054 -0.229444,-0.77515 z m -0.520898,2.84324 q -0.74104,0 -1.168921,-0.47129 -0.42478,-0.47129 -0.42478,-1.28984 0,-0.79065 0.412378,-1.28054 0.412378,-0.493 1.085205,-0.5023 0.632519,0 1.001489,0.43408 0.37207,0.43098 0.37207,1.15342 0,0.0372 -0.0031,0.13643 0,0.0992 0,0.14262 h -2.334741 q 0.0093,0.57981 0.297656,0.90538 0.291455,0.32246 0.781347,0.32246 0.539502,0 1.082105,-0.28526 l 0.08062,0.41858 q -0.517798,0.31626 -1.181323,0.31626 z" />
        <path
           id="path41"
           style="font-style:normal;font-variant:normal;font-weight:normal;font-stretch:normal;font-size:6.35px;font-family:oxygen;-inkscape-font-specification:oxygen;stroke-width:0.264583"
           d="m 79.346754,156.97864 v -3.40135 h 0.434082 l 0.06511,0.4868 q 0.201538,-0.25115 0.502295,-0.40308 0.303857,-0.15503 0.654224,-0.15503 0.589111,0 0.871264,0.33176 0.282154,0.32867 0.282154,1.0139 v 2.127 h -0.517798 q 0,-2.04639 -0.0031,-2.19212 -0.0124,-0.43408 -0.176733,-0.63562 -0.161231,-0.20153 -0.542603,-0.20153 -0.399975,0 -0.666626,0.19223 -0.26665,0.19224 -0.347265,0.4992 -0.03101,0.20774 -0.03101,0.47749 v 1.86035 z" />
        <path
           id="path43"
           style="font-style:normal;font-variant:normal;font-weight:normal;font-stretch:normal;font-size:6.35px;font-family:oxygen;-inkscape-font-specification:oxygen;stroke-width:0.264583"
           d="m 84.456519,157.04995 q -0.750342,0 -1.175123,-0.48679 -0.421679,-0.48679 -0.421679,-1.27434 0.0031,-0.79375 0.430981,-1.28674 0.430982,-0.4961 1.178223,-0.4961 0.26355,0 0.508496,0.0651 0.248047,0.0651 0.390674,0.17054 l -0.142627,0.40307 q -0.362769,-0.19533 -0.765845,-0.19533 -0.492993,0 -0.781348,0.35966 -0.285253,0.35967 -0.285253,0.98289 0,0.60771 0.282153,0.96428 0.285254,0.35347 0.787549,0.35347 0.399975,0 0.818554,-0.21704 l 0.06511,0.41237 q -0.337964,0.24495 -0.889868,0.24495 z" />
        <path
           id="path45"
           style="font-style:normal;font-variant:normal;font-weight:normal;font-stretch:normal;font-size:6.35px;font-family:oxygen;-inkscape-font-specification:oxygen;stroke-width:0.264583"
           d="m 87.978783,154.20671 q -0.226343,-0.27285 -0.623218,-0.27285 -0.396875,0 -0.648023,0.28216 -0.251147,0.27905 -0.294555,0.76584 h 1.795239 q 0,-0.5054 -0.229443,-0.77515 z m -0.520899,2.84324 q -0.74104,0 -1.168921,-0.47129 -0.42478,-0.47129 -0.42478,-1.28984 0,-0.79065 0.412378,-1.28054 0.412378,-0.493 1.085205,-0.5023 0.63252,0 1.001489,0.43408 0.372071,0.43098 0.372071,1.15342 0,0.0372 -0.0031,0.13643 0,0.0992 0,0.14262 h -2.334741 q 0.0093,0.57981 0.297656,0.90538 0.291455,0.32246 0.781348,0.32246 0.539502,0 1.082104,-0.28526 l 0.08061,0.41858 q -0.517797,0.31626 -1.181323,0.31626 z" />
        <path
           id="path47"
           style="font-style:normal;font-variant:normal;font-weight:normal;font-stretch:normal;font-size:6.35px;font-family:oxygen;-inkscape-font-specification:oxygen;stroke-width:0.264583"
           d="m 91.963039,154.37725 q -0.288355,-0.31316 -0.412378,-0.524 -0.124024,-0.21084 -0.124024,-0.48679 0,-0.46199 0.325562,-0.73174 0.328662,-0.27285 0.880566,-0.27285 0.325562,0 0.592212,0.10231 0.269751,0.0992 0.440283,0.32247 0.173633,0.22014 0.173633,0.5271 0,0.19843 -0.08061,0.37517 -0.07752,0.17363 -0.229444,0.31626 -0.148828,0.14262 -0.328662,0.25734 -0.176733,0.11473 -0.412378,0.22325 l 1.243335,1.33015 q 0.248047,-0.26045 0.440284,-0.69453 l 0.37517,0.28525 q -0.192236,0.42168 -0.492993,0.77515 l 0.561206,0.66972 q -0.229443,0.0868 -0.486792,0.16123 l -0.421679,-0.47749 q -0.638721,0.5147 -1.488282,0.5147 -0.784448,0 -1.193725,-0.34106 -0.406177,-0.34417 -0.406177,-0.95498 0,-0.47439 0.266651,-0.79685 0.269751,-0.32247 0.778247,-0.57981 z m 0.31936,0.35036 q -0.390674,0.19844 -0.604614,0.43408 -0.21084,0.23565 -0.21084,0.55811 0,0.39998 0.285254,0.62632 0.285254,0.22324 0.79375,0.22324 0.607715,0 1.103808,-0.39377 -0.229443,-0.24805 -0.685229,-0.72554 -0.452686,-0.47749 -0.682129,-0.72244 z m 0.359668,-1.91926 q -0.288355,0 -0.461987,0.14883 -0.173633,0.14573 -0.173633,0.40928 0,0.21083 0.111621,0.38757 0.114722,0.17363 0.353467,0.40307 0.189135,-0.093 0.303857,-0.16123 0.117822,-0.0682 0.241846,-0.16743 0.124023,-0.10232 0.179834,-0.22014 0.05891,-0.11782 0.05891,-0.26045 0,-0.25735 -0.176733,-0.39687 -0.176734,-0.14263 -0.437183,-0.14263 z" />
        <path
           id="path49"
           style="font-style:normal;font-variant:normal;font-weight:normal;font-stretch:normal;font-size:6.35px;font-family:oxygen;-inkscape-font-specification:oxygen;stroke-width:0.264583"
           d="m 99.308325,156.69648 -1.407666,-3.27421 -0.117822,-0.31316 0.0217,1.12241 v 2.74712 h -0.502295 v -4.58577 h 0.694531 l 1.596802,3.65249 1.581301,-3.65249 h 0.67593 v 4.58577 h -0.5209 v -2.75952 l 0.0217,-1.09761 -0.11472,0.31316 -1.404566,3.26181 z" />
        <path
           id="path51"
           style="font-style:normal;font-variant:normal;font-weight:normal;font-stretch:normal;font-size:6.35px;font-family:oxygen;-inkscape-font-specification:oxygen;stroke-width:0.264583"
           d="m 103.81968,156.63137 q 0.36897,0 0.64802,-0.20154 0.28216,-0.20463 0.36277,-0.5488 v -0.57361 q -0.0155,0 -0.18914,0.0155 -0.17053,0.0155 -0.22324,0.0186 -0.67282,0.0589 -0.93948,0.22014 -0.26355,0.16123 -0.26355,0.5178 0,0.27285 0.16124,0.41238 0.16123,0.13952 0.44338,0.13952 z m 1.12551,0.34727 q -0.0465,-0.19844 -0.0899,-0.42788 -0.28215,0.28215 -0.5302,0.39067 -0.24804,0.10852 -0.58291,0.10852 -0.47749,0 -0.76894,-0.24805 -0.28836,-0.25114 -0.28836,-0.71933 0,-0.5209 0.39378,-0.77205 0.39687,-0.25114 1.14101,-0.31316 0.10232,-0.009 0.30696,-0.0248 0.20774,-0.0186 0.31006,-0.0279 v -0.30075 q 0,-0.35967 -0.16743,-0.5333 -0.16743,-0.17364 -0.5271,-0.17364 -0.50229,0 -1.01389,0.24805 -0.0155,-0.0372 -0.0806,-0.21394 -0.0651,-0.17983 -0.0682,-0.18604 0.22634,-0.12712 0.5364,-0.20153 0.31316,-0.0775 0.63562,-0.0775 0.63562,0 0.91467,0.27905 0.28216,0.27596 0.28216,0.94258 v 2.25103 z" />
        <path
           id="path53"
           style="font-style:normal;font-variant:normal;font-weight:normal;font-stretch:normal;font-size:6.35px;font-family:oxygen;-inkscape-font-specification:oxygen;stroke-width:0.264583"
           d="m 107.67991,157.04995 q -0.75034,0 -1.17512,-0.48679 -0.42168,-0.48679 -0.42168,-1.27434 0.003,-0.79375 0.43098,-1.28674 0.43098,-0.4961 1.17822,-0.4961 0.26355,0 0.5085,0.0651 0.24804,0.0651 0.39067,0.17054 l -0.14263,0.40307 q -0.36277,-0.19533 -0.76584,-0.19533 -0.493,0 -0.78135,0.35966 -0.28525,0.35967 -0.28525,0.98289 0,0.60771 0.28215,0.96428 0.28525,0.35347 0.78755,0.35347 0.39997,0 0.81855,-0.21704 l 0.0651,0.41237 q -0.33797,0.24495 -0.88987,0.24495 z" />
        <path
           id="path55"
           style="font-style:normal;font-variant:normal;font-weight:normal;font-stretch:normal;font-size:6.35px;font-family:oxygen;-inkscape-font-specification:oxygen;stroke-width:0.264583"
           d="m 111.53393,156.97864 v -2.05569 q 0,-0.5116 -0.16433,-0.74414 -0.16123,-0.23255 -0.5674,-0.23255 -0.39068,0 -0.66043,0.19534 -0.26665,0.19534 -0.34726,0.5054 -0.0279,0.23254 -0.0279,0.51779 v 1.81385 h -0.5178 v -4.72219 l 0.5178,-0.031 v 1.38286 q 0,0.17673 -0.0124,0.43718 0.43718,-0.5395 1.15962,-0.5395 1.13791,0 1.13791,1.33635 v 2.13631 z" />
        <path
           id="path57"
           style="font-style:normal;font-variant:normal;font-weight:normal;font-stretch:normal;font-size:6.35px;font-family:oxygen;-inkscape-font-specification:oxygen;stroke-width:0.264583"
           d="m 113.30127,153.57729 v 3.40135 h -0.5209 v -3.40135 z m 0,-1.23713 v 0.61392 h -0.5209 v -0.61392 z" />
        <path
           id="path59"
           style="font-style:normal;font-variant:normal;font-weight:normal;font-stretch:normal;font-size:6.35px;font-family:oxygen;-inkscape-font-specification:oxygen;stroke-width:0.264583"
           d="m 114.27485,156.97864 v -3.40135 h 0.43409 l 0.0651,0.4868 q 0.20154,-0.25115 0.50229,-0.40308 0.30386,-0.15503 0.65423,-0.15503 0.58911,0 0.87126,0.33176 0.28216,0.32867 0.28216,1.0139 v 2.127 h -0.5178 q 0,-2.04639 -0.003,-2.19212 -0.0124,-0.43408 -0.17674,-0.63562 -0.16123,-0.20153 -0.5426,-0.20153 -0.39997,0 -0.66663,0.19223 -0.26665,0.19224 -0.34726,0.4992 -0.031,0.20774 -0.031,0.47749 v 1.86035 z" />
        <path
           id="path61"
           style="font-style:normal;font-variant:normal;font-weight:normal;font-stretch:normal;font-size:6.35px;font-family:oxygen;-inkscape-font-specification:oxygen;stroke-width:0.264583"
           d="m 119.90551,154.20671 q -0.22634,-0.27285 -0.62321,-0.27285 -0.39688,0 -0.64803,0.28216 -0.25114,0.27905 -0.29455,0.76584 h 1.79524 q 0,-0.5054 -0.22945,-0.77515 z m -0.52089,2.84324 q -0.74104,0 -1.16893,-0.47129 -0.42478,-0.47129 -0.42478,-1.28984 0,-0.79065 0.41238,-1.28054 0.41238,-0.493 1.08521,-0.5023 0.63252,0 1.00149,0.43408 0.37207,0.43098 0.37207,1.15342 0,0.0372 -0.003,0.13643 0,0.0992 0,0.14262 h -2.33475 q 0.009,0.57981 0.29766,0.90538 0.29146,0.32246 0.78135,0.32246 0.5395,0 1.0821,-0.28526 l 0.0806,0.41858 q -0.5178,0.31626 -1.18132,0.31626 z" />
        <path
           id="path63"
           style="font-style:normal;font-variant:normal;font-weight:normal;font-stretch:normal;font-size:6.35px;font-family:oxygen;-inkscape-font-specification:oxygen;stroke-width:0.264583"
           d="m 123.06191,156.97864 v -4.58577 h 0.53951 v 4.10828 h 2.01848 l -0.0186,0.47749 z" />
        <path
           id="path65"
           style="font-style:normal;font-variant:normal;font-weight:normal;font-stretch:normal;font-size:6.35px;font-family:oxygen;-inkscape-font-specification:oxygen;stroke-width:0.264583"
           d="m 128.09106,154.20671 q -0.22634,-0.27285 -0.62322,-0.27285 -0.39687,0 -0.64802,0.28216 -0.25115,0.27905 -0.29456,0.76584 h 1.79524 q 0,-0.5054 -0.22944,-0.77515 z m -0.5209,2.84324 q -0.74104,0 -1.16892,-0.47129 -0.42478,-0.47129 -0.42478,-1.28984 0,-0.79065 0.41238,-1.28054 0.41238,-0.493 1.0852,-0.5023 0.63252,0 1.00149,0.43408 0.37207,0.43098 0.37207,1.15342 0,0.0372 -0.003,0.13643 0,0.0992 0,0.14262 h -2.33474 q 0.009,0.57981 0.29766,0.90538 0.29145,0.32246 0.78135,0.32246 0.5395,0 1.0821,-0.28526 l 0.0806,0.41858 q -0.5178,0.31626 -1.18133,0.31626 z" />
        <path
           id="path67"
           style="font-style:normal;font-variant:normal;font-weight:normal;font-stretch:normal;font-size:6.35px;font-family:oxygen;-inkscape-font-specification:oxygen;stroke-width:0.264583"
           d="m 130.51262,156.63137 q 0.36897,0 0.64803,-0.20154 0.28215,-0.20463 0.36276,-0.5488 v -0.57361 q -0.0155,0 -0.18913,0.0155 -0.17053,0.0155 -0.22324,0.0186 -0.67283,0.0589 -0.93948,0.22014 -0.26355,0.16123 -0.26355,0.5178 0,0.27285 0.16123,0.41238 0.16123,0.13952 0.44338,0.13952 z m 1.12552,0.34727 q -0.0465,-0.19844 -0.0899,-0.42788 -0.28215,0.28215 -0.5302,0.39067 -0.24805,0.10852 -0.58291,0.10852 -0.47749,0 -0.76895,-0.24805 -0.28835,-0.25114 -0.28835,-0.71933 0,-0.5209 0.39377,-0.77205 0.39688,-0.25114 1.14102,-0.31316 0.10232,-0.009 0.30696,-0.0248 0.20774,-0.0186 0.31005,-0.0279 v -0.30075 q 0,-0.35967 -0.16743,-0.5333 -0.16743,-0.17364 -0.5271,-0.17364 -0.50229,0 -1.01389,0.24805 -0.0155,-0.0372 -0.0806,-0.21394 -0.0651,-0.17983 -0.0682,-0.18604 0.22635,-0.12712 0.53641,-0.20153 0.31315,-0.0775 0.63562,-0.0775 0.63562,0 0.91467,0.27905 0.28215,0.27596 0.28215,0.94258 v 2.25103 z" />
        <path
           id="path69"
           style="font-style:normal;font-variant:normal;font-weight:normal;font-stretch:normal;font-size:6.35px;font-family:oxygen;-inkscape-font-specification:oxygen;stroke-width:0.264583"
           d="m 134.45967,153.54629 q 0.13952,0 0.25425,0.0186 l -0.0186,0.47749 q -0.14263,-0.0248 -0.24805,-0.0248 -0.43408,0 -0.70693,0.30386 -0.26975,0.30075 -0.26975,0.74724 v 1.90996 h -0.5178 q -0.003,-3.13159 -0.003,-3.40135 h 0.43098 l 0.0496,0.61082 q 0.17674,-0.28835 0.44959,-0.46509 0.27285,-0.17673 0.57981,-0.17673 z" />
        <path
           id="path71"
           style="font-style:normal;font-variant:normal;font-weight:normal;font-stretch:normal;font-size:6.35px;font-family:oxygen;-inkscape-font-specification:oxygen;stroke-width:0.264583"
           d="m 135.24721,156.97864 v -3.40135 h 0.43409 l 0.0651,0.4868 q 0.20154,-0.25115 0.50229,-0.40308 0.30386,-0.15503 0.65423,-0.15503 0.58911,0 0.87126,0.33176 0.28215,0.32867 0.28215,1.0139 v 2.127 h -0.51779 q 0,-2.04639 -0.003,-2.19212 -0.0124,-0.43408 -0.17674,-0.63562 -0.16123,-0.20153 -0.5426,-0.20153 -0.39998,0 -0.66663,0.19223 -0.26665,0.19224 -0.34726,0.4992 -0.031,0.20774 -0.031,0.47749 v 1.86035 z" />
        <path
           id="path73"
           style="font-style:normal;font-variant:normal;font-weight:normal;font-stretch:normal;font-size:6.35px;font-family:oxygen;-inkscape-font-specification:oxygen;stroke-width:0.264583"
           d="m 139.52913,153.57729 v 3.40135 h -0.5209 v -3.40135 z m 0,-1.23713 v 0.61392 h -0.5209 v -0.61392 z" />
        <path
           id="path75"
           style="font-style:normal;font-variant:normal;font-weight:normal;font-stretch:normal;font-size:6.35px;font-family:oxygen;-inkscape-font-specification:oxygen;stroke-width:0.264583"
           d="m 140.50271,156.97864 v -3.40135 h 0.43408 l 0.0651,0.4868 q 0.20154,-0.25115 0.5023,-0.40308 0.30385,-0.15503 0.65422,-0.15503 0.58911,0 0.87126,0.33176 0.28216,0.32867 0.28216,1.0139 v 2.127 h -0.5178 q 0,-2.04639 -0.003,-2.19212 -0.0124,-0.43408 -0.17673,-0.63562 -0.16124,-0.20153 -0.54261,-0.20153 -0.39997,0 -0.66662,0.19223 -0.26665,0.19224 -0.34727,0.4992 -0.031,0.20774 -0.031,0.47749 v 1.86035 z" />
        <path
           id="path77"
           style="font-style:normal;font-variant:normal;font-weight:normal;font-stretch:normal;font-size:6.35px;font-family:oxygen;-inkscape-font-specification:oxygen;stroke-width:0.264583"
           d="m 145.49465,156.53525 q 0.26355,0 0.46199,-0.093 0.19844,-0.093 0.31006,-0.25735 0.11162,-0.16433 0.16433,-0.36587 0.0558,-0.20154 0.0558,-0.44028 v -0.25115 q 0,-0.24805 -0.0558,-0.45579 -0.0558,-0.21084 -0.17363,-0.37517 -0.11473,-0.16743 -0.31006,-0.26045 -0.19224,-0.093 -0.44959,-0.093 -0.21394,0 -0.39067,0.0806 -0.17363,0.0806 -0.28836,0.21394 -0.11162,0.13022 -0.19223,0.30696 -0.0775,0.17363 -0.11162,0.35346 -0.0341,0.17984 -0.0341,0.36277 0,0.17984 0.0372,0.35657 0.0372,0.17673 0.11782,0.34417 0.0806,0.16743 0.19534,0.29455 0.11472,0.12402 0.28525,0.20154 0.17363,0.0775 0.37827,0.0775 z m -0.79685,1.99988 -0.0465,-0.46819 h 0.63252 q 0.26355,0 0.45889,-0.0372 0.19534,-0.0372 0.32556,-0.12403 0.13023,-0.0837 0.21084,-0.18913 0.0806,-0.10232 0.12092,-0.26975 0.0434,-0.16433 0.0558,-0.32867 0.0155,-0.16123 0.0155,-0.39687 v -0.30076 q -0.18604,0.26665 -0.43098,0.41238 -0.24495,0.14263 -0.62322,0.14263 -0.29146,0 -0.5395,-0.0992 -0.24495,-0.10232 -0.41548,-0.26975 -0.16743,-0.16743 -0.28836,-0.38758 -0.11782,-0.22014 -0.17363,-0.45578 -0.0527,-0.23565 -0.0527,-0.47439 0,-0.37207 0.0899,-0.68833 0.093,-0.31626 0.27285,-0.56431 0.17983,-0.24805 0.47129,-0.38757 0.29455,-0.14263 0.67282,-0.14263 0.33487,0 0.58292,0.13023 0.25114,0.12712 0.44958,0.39377 v -0.45269 h 0.5054 v 3.1564 q 0,0.21704 -0.0124,0.37827 -0.009,0.16433 -0.0527,0.36277 -0.0403,0.19844 -0.11162,0.34107 -0.0713,0.14262 -0.20154,0.28525 -0.12712,0.14573 -0.30695,0.23254 -0.17674,0.0899 -0.44029,0.14573 -0.26355,0.0558 -0.59531,0.0558 z" />
      </g>
      <g
         style="font-style:normal;font-variant:normal;font-weight:normal;font-stretch:normal;font-size:11.054px;line-height:0.95;font-family:oxygen;-inkscape-font-specification:oxygen;display:inline;fill:#000000;fill-opacity:1;stroke:none;stroke-width:0.276351"
         id="text12-3"
         aria-label="Paulo Breviglieri">
        <path
           id="path80"
           style="font-style:normal;font-variant:normal;font-weight:normal;font-stretch:normal;font-size:13.265px;font-family:oxygen;-inkscape-font-specification:oxygen;fill:#000080;fill-opacity:1;stroke:none;stroke-width:0.276351;stroke-opacity:1"
           d="m 53.521195,148.13171 h -1.146438 v -9.68966 h 3.121939 q 0.712475,0 1.288933,0.14897 0.576457,0.14897 1.023374,0.45339 0.446916,0.30442 0.693044,0.81611 0.246128,0.51169 0.246128,1.19178 0,0.5635 -0.103633,1.01042 -0.103632,0.44044 -0.356237,0.82906 -0.252605,0.38862 -0.66066,0.6477 -0.408054,0.25261 -1.049282,0.40158 -0.634751,0.1425 -1.476767,0.1425 -0.667137,0 -1.580401,-0.0842 z m 1.69051,-5.03914 q 0.634751,0 1.088145,-0.12307 0.453394,-0.12306 0.693044,-0.30442 0.246128,-0.18135 0.382146,-0.47282 0.142496,-0.29147 0.174881,-0.53112 0.03239,-0.24613 0.03239,-0.58941 0,-0.82259 -0.557026,-1.21121 -0.55055,-0.38862 -1.502676,-0.38862 h -2.001409 v 3.60771 q 1.250071,0.013 1.69051,0.013 z" />
        <path
           id="path82"
           style="font-style:normal;font-variant:normal;font-weight:normal;font-stretch:normal;font-size:13.265px;font-family:oxygen;-inkscape-font-specification:oxygen;fill:#000080;fill-opacity:1;stroke:none;stroke-width:0.276351;stroke-opacity:1"
           d="m 61.870114,147.40628 q 0.770769,0 1.353703,-0.421 0.589412,-0.42749 0.757815,-1.14644 v -1.19826 q -0.03238,0 -0.3951,0.0324 -0.356238,0.0324 -0.466347,0.0389 -1.40552,0.12306 -1.962547,0.45987 -0.550549,0.33681 -0.550549,1.08167 0,0.56998 0.336806,0.86145 0.336807,0.29146 0.926219,0.29146 z m 2.351169,0.72543 q -0.09716,-0.41453 -0.187834,-0.89383 -0.589412,0.58941 -1.107576,0.81611 -0.518164,0.2267 -1.217686,0.2267 -0.997465,0 -1.606308,-0.51817 -0.602366,-0.52464 -0.602366,-1.50267 0,-1.08815 0.822586,-1.61279 0.829062,-0.52464 2.383554,-0.65418 0.213743,-0.0194 0.641228,-0.0518 0.433963,-0.0389 0.647705,-0.0583 v -0.62828 q 0,-0.75133 -0.34976,-1.11405 -0.349761,-0.36271 -1.101099,-0.36271 -1.049282,0 -2.117996,0.51816 -0.03238,-0.0777 -0.168403,-0.44692 -0.136018,-0.37566 -0.142495,-0.38862 0.472825,-0.26556 1.12053,-0.42101 0.654182,-0.16192 1.327795,-0.16192 1.327796,0 1.91073,0.58293 0.589412,0.57646 0.589412,1.96902 v 4.70234 z" />
        <path
           id="path84"
           style="font-style:normal;font-variant:normal;font-weight:normal;font-stretch:normal;font-size:13.265px;font-family:oxygen;-inkscape-font-specification:oxygen;fill:#000080;fill-opacity:1;stroke:none;stroke-width:0.276351;stroke-opacity:1"
           d="m 66.682562,145.76111 v -4.73472 h 1.088145 v 4.74768 q 0,0.46634 0.129541,0.7902 0.136018,0.32385 0.382146,0.50521 0.252605,0.17488 0.563503,0.2526 0.317376,0.0777 0.72543,0.0777 0.842017,0 1.308364,-0.36919 0.472825,-0.3692 0.472825,-1.25655 v -4.74768 h 1.088145 v 4.73472 q 0,0.54408 -0.15545,0.97804 -0.155449,0.43396 -0.421008,0.72543 -0.259082,0.28499 -0.628274,0.47282 -0.369192,0.18784 -0.783723,0.27204 -0.408054,0.0842 -0.880879,0.0842 -0.466348,0 -0.880879,-0.0842 -0.414531,-0.0842 -0.7902,-0.27204 -0.369192,-0.19431 -0.641228,-0.4793 -0.265559,-0.29147 -0.421009,-0.72543 -0.155449,-0.43396 -0.155449,-0.97156 z" />
        <path
           id="path86"
           style="font-style:normal;font-variant:normal;font-weight:normal;font-stretch:normal;font-size:13.265px;font-family:oxygen;-inkscape-font-specification:oxygen;fill:#000080;fill-opacity:1;stroke:none;stroke-width:0.276351;stroke-opacity:1"
           d="m 75.964176,148.26125 q -1.036328,0 -1.47029,-0.55702 Q 74.0664,147.1472 74.0664,145.76759 v -7.50042 l 1.075191,-0.0648 v 7.13771 q 0,0.44044 0.0065,0.706 0.01295,0.26556 0.05182,0.52464 0.03886,0.25261 0.103633,0.38215 0.06477,0.12954 0.187834,0.23965 0.123064,0.10363 0.291468,0.1425 0.17488,0.0324 0.427485,0.0324 0.207266,0 0.816108,-0.0777 l 0.05829,0.86145 q -0.667136,0.1101 -1.12053,0.1101 z" />
        <path
           id="path88"
           style="font-style:normal;font-variant:normal;font-weight:normal;font-stretch:normal;font-size:13.265px;font-family:oxygen;-inkscape-font-specification:oxygen;fill:#000080;fill-opacity:1;stroke:none;stroke-width:0.276351;stroke-opacity:1"
           d="m 78.529088,144.59524 q 0,1.26303 0.557027,2.02732 0.563503,0.75782 1.638694,0.75782 1.062236,0 1.599831,-0.75782 0.544072,-0.75781 0.544072,-2.04027 0,-1.30189 -0.537595,-2.04675 -0.531118,-0.75134 -1.62574,-0.75134 -1.062236,0 -1.619262,0.7643 -0.557027,0.76429 -0.557027,2.04674 z m 5.460154,-0.0194 q 0,1.65165 -0.880879,2.6815 -0.880879,1.02338 -2.435371,1.02338 -1.496199,0 -2.383555,-1.03633 -0.880879,-1.03633 -0.880879,-2.66207 0,-1.65813 0.887356,-2.6815 0.887356,-1.02337 2.435372,-1.02337 1.522107,0 2.390031,1.02985 0.867925,1.02337 0.867925,2.66854 z" />
        <path
           id="path90"
           style="font-style:normal;font-variant:normal;font-weight:normal;font-stretch:normal;font-size:13.265px;font-family:oxygen;-inkscape-font-specification:oxygen;fill:#000080;fill-opacity:1;stroke:none;stroke-width:0.276351;stroke-opacity:1"
           d="m 90.148919,143.57187 v 3.6401 h 2.001409 q 1.217685,0 1.826528,-0.44691 0.608843,-0.4534 0.608843,-1.40552 0,-0.99099 -0.660659,-1.38609 -0.654182,-0.40158 -2.046748,-0.40158 z m 0,-0.90031 h 2.053225 q 1.003943,0 1.51563,-0.34976 0.511687,-0.34976 0.511687,-1.24359 0,-0.90031 -0.61532,-1.23712 -0.608842,-0.34329 -1.897776,-0.34329 h -1.567446 z m -1.12053,-4.1194 h 2.74627 q 1.845959,0 2.733315,0.5635 0.893833,0.5635 0.893833,1.79414 0,0.18136 -0.02591,0.36272 -0.01943,0.17488 -0.116587,0.45339 -0.09068,0.27851 -0.252605,0.51169 -0.161926,0.22669 -0.479301,0.45987 -0.310899,0.22669 -0.731907,0.36271 0.96508,0.18136 1.463813,0.81611 0.498733,0.63475 0.498733,1.52859 0,1.30188 -0.85497,2.01436 -0.848494,0.71247 -2.532527,0.71247 h -3.342159 z" />
        <path
           id="path92"
           style="font-style:normal;font-variant:normal;font-weight:normal;font-stretch:normal;font-size:13.265px;font-family:oxygen;-inkscape-font-specification:oxygen;fill:#000080;fill-opacity:1;stroke:none;stroke-width:0.276351;stroke-opacity:1"
           d="m 100.3438,140.96162 q 0.29146,0 0.53111,0.0389 l -0.0389,0.99747 q -0.29794,-0.0518 -0.51816,-0.0518 -0.906789,0 -1.476769,0.63475 -0.563504,0.62828 -0.563504,1.56097 v 3.98986 H 97.19595 q -0.0065,-6.54182 -0.0065,-7.10532 h 0.90031 l 0.103633,1.27598 q 0.369192,-0.60237 0.939172,-0.97156 0.569981,-0.36919 1.211212,-0.36919 z" />
        <path
           id="path94"
           style="font-style:normal;font-variant:normal;font-weight:normal;font-stretch:normal;font-size:13.265px;font-family:oxygen;-inkscape-font-specification:oxygen;fill:#000080;fill-opacity:1;stroke:none;stroke-width:0.276351;stroke-opacity:1"
           d="m 105.95292,142.34123 q -0.47282,-0.56998 -1.30188,-0.56998 -0.82907,0 -1.35371,0.58941 -0.52464,0.58294 -0.61532,1.59983 h 3.75021 q 0,-1.05576 -0.4793,-1.61926 z m -1.08814,5.93946 q -1.54802,0 -2.44185,-0.98452 -0.88736,-0.98451 -0.88736,-2.69445 0,-1.65165 0.86145,-2.67502 0.86145,-1.02985 2.26697,-1.04928 1.32132,0 2.09209,0.90678 0.77724,0.90031 0.77724,2.40947 0,0.0777 -0.006,0.28499 0,0.20726 0,0.29794 h -4.87722 q 0.0194,1.21121 0.62179,1.8913 0.60885,0.67361 1.63222,0.67361 1.12701,0 2.26049,-0.59589 l 0.1684,0.87441 q -1.08166,0.66066 -2.46775,0.66066 z" />
        <path
           id="path96"
           style="font-style:normal;font-variant:normal;font-weight:normal;font-stretch:normal;font-size:13.265px;font-family:oxygen;-inkscape-font-specification:oxygen;fill:#000080;fill-opacity:1;stroke:none;stroke-width:0.276351;stroke-opacity:1"
           d="m 110.85605,148.13171 -2.75275,-7.10532 h 1.15939 l 1.56745,4.22304 q 0,0 0.64771,1.80062 0.22022,-0.69305 0.60884,-1.78767 0.49225,-1.37961 1.52858,-4.23599 h 1.15292 l -2.73332,7.10532 z" />
        <path
           id="path98"
           style="font-style:normal;font-variant:normal;font-weight:normal;font-stretch:normal;font-size:13.265px;font-family:oxygen;-inkscape-font-specification:oxygen;fill:#000080;fill-opacity:1;stroke:none;stroke-width:0.276351;stroke-opacity:1"
           d="m 116.98982,141.02639 v 7.10532 h -1.08815 v -7.10532 z m 0,-2.58434 v 1.28245 h -1.08815 v -1.28245 z" />
        <path
           id="path100"
           style="font-style:normal;font-variant:normal;font-weight:normal;font-stretch:normal;font-size:13.265px;font-family:oxygen;-inkscape-font-specification:oxygen;fill:#000080;fill-opacity:1;stroke:none;stroke-width:0.276351;stroke-opacity:1"
           d="m 121.78284,147.2055 q 0.55055,0 0.96508,-0.19432 0.41453,-0.19431 0.6477,-0.53759 0.23318,-0.34328 0.34329,-0.76429 0.11659,-0.42101 0.11659,-0.91974 v -0.52465 q 0,-0.51816 -0.11659,-0.95212 -0.11659,-0.44044 -0.36272,-0.78373 -0.23965,-0.34976 -0.6477,-0.54407 -0.40158,-0.19431 -0.93917,-0.19431 -0.44692,0 -0.81611,0.1684 -0.36272,0.16841 -0.60237,0.44692 -0.23317,0.27204 -0.40158,0.64123 -0.16192,0.36271 -0.23317,0.73838 -0.0713,0.37567 -0.0713,0.75782 0,0.37567 0.0777,0.74486 0.0777,0.36919 0.24613,0.71895 0.1684,0.34976 0.40805,0.61532 0.23965,0.25908 0.59589,0.42101 0.36271,0.16193 0.7902,0.16193 z m -1.6646,4.17769 -0.0972,-0.97803 h 1.32132 q 0.55055,0 0.9586,-0.0777 0.40806,-0.0777 0.68009,-0.25908 0.27204,-0.17488 0.44044,-0.3951 0.16841,-0.21374 0.25261,-0.5635 0.0907,-0.34329 0.11658,-0.68657 0.0324,-0.33681 0.0324,-0.82906 v -0.62828 q -0.38862,0.55703 -0.90031,0.86145 -0.51169,0.29795 -1.30189,0.29795 -0.60884,0 -1.127,-0.20727 -0.51169,-0.21374 -0.86793,-0.5635 -0.34976,-0.34976 -0.60236,-0.80963 -0.24613,-0.45987 -0.36272,-0.95213 -0.11011,-0.49226 -0.11011,-0.99099 0,-0.77725 0.18783,-1.4379 0.19432,-0.66066 0.56999,-1.17883 0.37566,-0.51816 0.98451,-0.80963 0.61532,-0.29794 1.40552,-0.29794 0.69952,0 1.21768,0.27203 0.52464,0.26556 0.93918,0.82259 v -0.94565 h 1.05575 v 6.59364 q 0,0.45339 -0.0259,0.7902 -0.0194,0.34328 -0.11011,0.75781 -0.0842,0.41453 -0.23318,0.71248 -0.14897,0.29794 -0.42101,0.59589 -0.26555,0.30442 -0.64122,0.48578 -0.3692,0.18783 -0.91975,0.30442 -0.55054,0.11658 -1.24359,0.11658 z" />
        <path
           id="path102"
           style="font-style:normal;font-variant:normal;font-weight:normal;font-stretch:normal;font-size:13.265px;font-family:oxygen;-inkscape-font-specification:oxygen;fill:#000080;fill-opacity:1;stroke:none;stroke-width:0.276351;stroke-opacity:1"
           d="m 128.6226,148.26125 q -1.03633,0 -1.47029,-0.55702 -0.42749,-0.55703 -0.42749,-1.93664 v -7.50042 l 1.0752,-0.0648 v 7.13771 q 0,0.44044 0.006,0.706 0.013,0.26556 0.0518,0.52464 0.0389,0.25261 0.10363,0.38215 0.0648,0.12954 0.18784,0.23965 0.12306,0.10363 0.29146,0.1425 0.17488,0.0324 0.42749,0.0324 0.20726,0 0.81611,-0.0777 l 0.0583,0.86145 q -0.66714,0.1101 -1.12053,0.1101 z" />
        <path
           id="path104"
           style="font-style:normal;font-variant:normal;font-weight:normal;font-stretch:normal;font-size:13.265px;font-family:oxygen;-inkscape-font-specification:oxygen;fill:#000080;fill-opacity:1;stroke:none;stroke-width:0.276351;stroke-opacity:1"
           d="m 131.67329,141.02639 v 7.10532 h -1.08815 v -7.10532 z m 0,-2.58434 v 1.28245 h -1.08815 v -1.28245 z" />
        <path
           id="path106"
           style="font-style:normal;font-variant:normal;font-weight:normal;font-stretch:normal;font-size:13.265px;font-family:oxygen;-inkscape-font-specification:oxygen;fill:#000080;fill-opacity:1;stroke:none;stroke-width:0.276351;stroke-opacity:1"
           d="m 137.80058,142.34123 q -0.47282,-0.56998 -1.30188,-0.56998 -0.82907,0 -1.35371,0.58941 -0.52464,0.58294 -0.61532,1.59983 h 3.75021 q 0,-1.05576 -0.4793,-1.61926 z m -1.08814,5.93946 q -1.54802,0 -2.44185,-0.98452 -0.88736,-0.98451 -0.88736,-2.69445 0,-1.65165 0.86145,-2.67502 0.86145,-1.02985 2.26697,-1.04928 1.32132,0 2.09209,0.90678 0.77724,0.90031 0.77724,2.40947 0,0.0777 -0.006,0.28499 0,0.20726 0,0.29794 h -4.87722 q 0.0194,1.21121 0.62179,1.8913 0.60885,0.67361 1.63222,0.67361 1.12701,0 2.26049,-0.59589 l 0.1684,0.87441 q -1.08166,0.66066 -2.46775,0.66066 z" />
        <path
           id="path108"
           style="font-style:normal;font-variant:normal;font-weight:normal;font-stretch:normal;font-size:13.265px;font-family:oxygen;-inkscape-font-specification:oxygen;fill:#000080;fill-opacity:1;stroke:none;stroke-width:0.276351;stroke-opacity:1"
           d="m 144.07037,140.96162 q 0.29147,0 0.53112,0.0389 l -0.0389,0.99747 q -0.29795,-0.0518 -0.51817,-0.0518 -0.90678,0 -1.47677,0.63475 -0.5635,0.62828 -0.5635,1.56097 v 3.98986 h -1.08167 q -0.006,-6.54182 -0.006,-7.10532 h 0.90031 l 0.10363,1.27598 q 0.36919,-0.60237 0.93917,-0.97156 0.56998,-0.36919 1.21121,-0.36919 z" />
        <path
           id="path110"
           style="font-style:normal;font-variant:normal;font-weight:normal;font-stretch:normal;font-size:13.265px;font-family:oxygen;-inkscape-font-specification:oxygen;fill:#000080;fill-opacity:1;stroke:none;stroke-width:0.276351;stroke-opacity:1"
           d="m 146.99152,141.02639 v 7.10532 h -1.08815 v -7.10532 z m 0,-2.58434 v 1.28245 h -1.08815 v -1.28245 z" />
      </g>
    </g>
  </g>
</svg>
