<?xml version="1.0" encoding="UTF-8" standalone="no"?>
<svg
   xmlns:dc="http://purl.org/dc/elements/1.1/"
   xmlns:cc="http://creativecommons.org/ns#"
   xmlns:rdf="http://www.w3.org/1999/02/22-rdf-syntax-ns#"
   xmlns:svg="http://www.w3.org/2000/svg"
   xmlns="http://www.w3.org/2000/svg"
   xmlns:sodipodi="http://sodipodi.sourceforge.net/DTD/sodipodi-0.dtd"
   xmlns:inkscape="http://www.inkscape.org/namespaces/inkscape"
   inkscape:export-ydpi="138.66696"
   inkscape:export-xdpi="138.66696"
   inkscape:export-filename="/home/pb/Development/GitHub/logo.png"
   sodipodi:docname="logo.svg"
   inkscape:version="1.0 (4035a4fb49, 2020-05-01)"
   id="svg8"
   version="1.1"
   viewBox="0 0 105.65976 36.146106"
   height="136.6152"
   width="399.34399">
  <defs
     id="defs2" />
  <sodipodi:namedview
     fit-margin-left="1"
     fit-margin-bottom="25"
     units="px"
     fit-margin-top="25"
     fit-margin-right="1"
     inkscape:window-maximized="1"
     inkscape:window-y="45"
     inkscape:window-x="0"
     inkscape:window-height="686"
     inkscape:window-width="1366"
     showgrid="false"
     inkscape:document-rotation="0"
     inkscape:current-layer="layer1"
     inkscape:document-units="mm"
     inkscape:cy="68.307602"
     inkscape:cx="199.672"
     inkscape:zoom="2.9924076"
     inkscape:pageshadow="2"
     inkscape:pageopacity="0.0"
     borderopacity="1.0"
     bordercolor="#666666"
     pagecolor="#ffffff"
     id="base" />
  <metadata
     id="metadata5">
    <rdf:RDF>
      <cc:Work
         rdf:about="">
        <dc:format>image/svg+xml</dc:format>
        <dc:type
           rdf:resource="http://purl.org/dc/dcmitype/StillImage" />
        <dc:title></dc:title>
      </cc:Work>
    </rdf:RDF>
  </metadata>
  <g
     id="layer1"
     inkscape:groupmode="layer"
     inkscape:label="Layer 1"
     style="display:inline"
     transform="translate(-52.170118,-130.42695)">
    <g
       transform="translate(0,5.1411681)"
       id="g870">
      <g
         style="font-style:normal;font-variant:normal;font-weight:normal;font-stretch:normal;font-size:10.5833px;line-height:0.95;font-family:oxygen;-inkscape-font-specification:oxygen;fill:#000000;fill-opacity:1;stroke:none;stroke-width:0.264583"
         id="text12"
         aria-label="Data Science &amp; Machine Learning">
        <path
           id="path872"
           style="font-style:normal;font-variant:normal;font-weight:normal;font-stretch:normal;font-size:6.35px;font-family:oxygen;-inkscape-font-specification:oxygen;stroke-width:0.264583"
           d="m 55.571461,149.55543 q 0,-0.96118 -0.496094,-1.39836 -0.496094,-0.43718 -1.444873,-0.43718 h -0.719336 v 3.64938 h 0.809253 q 0.905371,0 1.37666,-0.45578 0.47439,-0.45889 0.47439,-1.35806 z m 0.573608,-0.0155 q 0,1.11931 -0.63562,1.70842 -0.63562,0.58911 -1.773535,0.58911 h -1.361157 v -4.58576 h 1.27124 q 0.573608,0 1.026294,0.13642 0.452685,0.13333 0.784448,0.40928 0.334863,0.27285 0.511597,0.71624 0.176733,0.44028 0.176733,1.02629 z" />
        <path
           id="path874"
           style="font-style:normal;font-variant:normal;font-weight:normal;font-stretch:normal;font-size:6.35px;font-family:oxygen;-inkscape-font-specification:oxygen;stroke-width:0.264583"
           d="m 57.918604,151.4902 q 0.36897,0 0.648023,-0.20154 0.282153,-0.20464 0.362768,-0.5488 v -0.57361 q -0.0155,0 -0.189135,0.0155 -0.170533,0.0155 -0.223243,0.0186 -0.672827,0.0589 -0.939477,0.22015 -0.26355,0.16123 -0.26355,0.51779 0,0.27286 0.161231,0.41238 0.16123,0.13953 0.443383,0.13953 z m 1.125513,0.34726 q -0.04651,-0.19843 -0.08992,-0.42788 -0.282153,0.28216 -0.5302,0.39068 -0.248047,0.10852 -0.58291,0.10852 -0.477491,0 -0.768946,-0.24805 -0.288354,-0.25115 -0.288354,-0.71934 0,-0.52089 0.393774,-0.77204 0.396875,-0.25115 1.141016,-0.31316 0.102319,-0.009 0.306958,-0.0248 0.207739,-0.0186 0.310059,-0.0279 v -0.30076 q 0,-0.35967 -0.167432,-0.5333 -0.167432,-0.17363 -0.5271,-0.17363 -0.502295,0 -1.013891,0.24805 -0.0155,-0.0372 -0.08062,-0.21394 -0.06511,-0.17984 -0.06821,-0.18604 0.226342,-0.12712 0.536401,-0.20154 0.313159,-0.0775 0.63562,-0.0775 0.63562,0 0.914673,0.27905 0.282153,0.27595 0.282153,0.94258 v 2.25102 z" />
        <path
           id="path876"
           style="font-style:normal;font-variant:normal;font-weight:normal;font-stretch:normal;font-size:6.35px;font-family:oxygen;-inkscape-font-specification:oxygen;stroke-width:0.264583"
           d="m 61.425367,151.89948 q -0.502295,0 -0.713135,-0.24495 -0.21084,-0.24495 -0.223242,-0.79065 v -2.04329 h -0.505395 l 0.0217,-0.34106 0.48059,-0.0434 0.176734,-0.77825 0.341064,-0.0124 v 0.79065 h 0.945679 v 0.38447 h -0.945679 v 1.95027 q 0,0.38758 0.117823,0.5457 0.117822,0.15813 0.403076,0.15813 0.102319,0 0.443383,-0.0496 l 0.02171,0.40927 q -0.36897,0.0651 -0.564307,0.0651 z" />
        <path
           id="path878"
           style="font-style:normal;font-variant:normal;font-weight:normal;font-stretch:normal;font-size:6.35px;font-family:oxygen;-inkscape-font-specification:oxygen;stroke-width:0.264583"
           d="m 63.515161,151.4902 q 0.36897,0 0.648023,-0.20154 0.282153,-0.20464 0.362768,-0.5488 v -0.57361 q -0.0155,0 -0.189135,0.0155 -0.170532,0.0155 -0.223242,0.0186 -0.672828,0.0589 -0.939478,0.22015 -0.26355,0.16123 -0.26355,0.51779 0,0.27286 0.161231,0.41238 0.16123,0.13953 0.443383,0.13953 z m 1.125513,0.34726 q -0.04651,-0.19843 -0.08992,-0.42788 -0.282153,0.28216 -0.5302,0.39068 -0.248047,0.10852 -0.58291,0.10852 -0.47749,0 -0.768945,-0.24805 -0.288355,-0.25115 -0.288355,-0.71934 0,-0.52089 0.393774,-0.77204 0.396875,-0.25115 1.141016,-0.31316 0.102319,-0.009 0.306958,-0.0248 0.207739,-0.0186 0.310059,-0.0279 v -0.30076 q 0,-0.35967 -0.167432,-0.5333 -0.167432,-0.17363 -0.5271,-0.17363 -0.502294,0 -1.013891,0.24805 -0.0155,-0.0372 -0.08062,-0.21394 -0.06511,-0.17984 -0.06821,-0.18604 0.226342,-0.12712 0.536401,-0.20154 0.313159,-0.0775 0.63562,-0.0775 0.63562,0 0.914673,0.27905 0.282153,0.27595 0.282153,0.94258 v 2.25102 z" />
        <path
           id="path880"
           style="font-style:normal;font-variant:normal;font-weight:normal;font-stretch:normal;font-size:6.35px;font-family:oxygen;-inkscape-font-specification:oxygen;stroke-width:0.264583"
           d="m 67.53042,151.08092 q 0.716236,0.35347 1.534791,0.35347 1.00769,0 1.00769,-0.91778 0,-0.29765 -0.161231,-0.48059 -0.158129,-0.18603 -0.579809,-0.29145 l -0.911572,-0.22945 q -1.044898,-0.26355 -1.044898,-1.11621 0,-0.65422 0.449585,-0.97048 0.449585,-0.31936 1.243335,-0.31936 0.415479,0 0.778247,0.0899 0.362769,0.0899 0.607715,0.24184 l -0.155029,0.43719 q -0.20774,-0.11473 -0.551905,-0.20464 -0.341064,-0.0899 -0.69143,-0.0899 -1.122412,0 -1.122412,0.77825 0,0.26355 0.170532,0.42478 0.173633,0.15813 0.517798,0.24184 l 0.871264,0.21084 q 0.558106,0.13333 0.84646,0.42788 0.288355,0.29146 0.288355,0.83096 0,0.70073 -0.430982,1.0573 -0.42788,0.35347 -1.16582,0.35347 -0.551904,0 -0.982886,-0.11162 -0.427881,-0.11473 -0.679028,-0.26976 z" />
        <path
           id="path882"
           style="font-style:normal;font-variant:normal;font-weight:normal;font-stretch:normal;font-size:6.35px;font-family:oxygen;-inkscape-font-specification:oxygen;stroke-width:0.264583"
           d="m 72.76421,151.90878 q -0.750342,0 -1.175122,-0.4868 -0.42168,-0.48679 -0.42168,-1.27434 0.0031,-0.79375 0.430982,-1.28674 0.430981,-0.49609 1.178222,-0.49609 0.26355,0 0.508497,0.0651 0.248046,0.0651 0.390673,0.17053 l -0.142627,0.40308 q -0.362768,-0.19534 -0.765844,-0.19534 -0.492993,0 -0.781348,0.35967 -0.285254,0.35967 -0.285254,0.98288 0,0.60772 0.282153,0.96429 0.285254,0.35346 0.787549,0.35346 0.399976,0 0.818555,-0.21704 l 0.06511,0.41238 q -0.337964,0.24495 -0.889868,0.24495 z" />
        <path
           id="path884"
           style="font-style:normal;font-variant:normal;font-weight:normal;font-stretch:normal;font-size:6.35px;font-family:oxygen;-inkscape-font-specification:oxygen;stroke-width:0.264583"
           d="m 74.937719,148.43612 v 3.40134 h -0.520898 v -3.40134 z m 0,-1.23713 v 0.61391 h -0.520898 v -0.61391 z" />
        <path
           id="path886"
           style="font-style:normal;font-variant:normal;font-weight:normal;font-stretch:normal;font-size:6.35px;font-family:oxygen;-inkscape-font-specification:oxygen;stroke-width:0.264583"
           d="m 77.870874,149.06554 q -0.226342,-0.27285 -0.623217,-0.27285 -0.396875,0 -0.648023,0.28215 -0.251147,0.27905 -0.294556,0.76585 h 1.79524 q 0,-0.5054 -0.229444,-0.77515 z m -0.520898,2.84324 q -0.74104,0 -1.168921,-0.47129 -0.42478,-0.47129 -0.42478,-1.28985 0,-0.79065 0.412378,-1.28054 0.412378,-0.49299 1.085205,-0.50229 0.632519,0 1.001489,0.43408 0.37207,0.43098 0.37207,1.15342 0,0.0372 -0.0031,0.13642 0,0.0992 0,0.14263 h -2.334741 q 0.0093,0.57981 0.297656,0.90537 0.291455,0.32246 0.781347,0.32246 0.539502,0 1.082105,-0.28525 l 0.08062,0.41858 q -0.517798,0.31626 -1.181323,0.31626 z" />
        <path
           id="path888"
           style="font-style:normal;font-variant:normal;font-weight:normal;font-stretch:normal;font-size:6.35px;font-family:oxygen;-inkscape-font-specification:oxygen;stroke-width:0.264583"
           d="m 79.346754,151.83746 v -3.40134 h 0.434082 l 0.06511,0.48679 q 0.201538,-0.25114 0.502295,-0.40307 0.303857,-0.15503 0.654224,-0.15503 0.589111,0 0.871264,0.33176 0.282154,0.32866 0.282154,1.01389 v 2.127 h -0.517798 q 0,-2.04638 -0.0031,-2.19211 -0.0124,-0.43408 -0.176733,-0.63562 -0.161231,-0.20154 -0.542603,-0.20154 -0.399975,0 -0.666626,0.19224 -0.26665,0.19223 -0.347265,0.49919 -0.03101,0.20774 -0.03101,0.47749 v 1.86035 z" />
        <path
           id="path890"
           style="font-style:normal;font-variant:normal;font-weight:normal;font-stretch:normal;font-size:6.35px;font-family:oxygen;-inkscape-font-specification:oxygen;stroke-width:0.264583"
           d="m 84.456519,151.90878 q -0.750342,0 -1.175123,-0.4868 -0.421679,-0.48679 -0.421679,-1.27434 0.0031,-0.79375 0.430981,-1.28674 0.430982,-0.49609 1.178223,-0.49609 0.26355,0 0.508496,0.0651 0.248047,0.0651 0.390674,0.17053 l -0.142627,0.40308 q -0.362769,-0.19534 -0.765845,-0.19534 -0.492993,0 -0.781348,0.35967 -0.285253,0.35967 -0.285253,0.98288 0,0.60772 0.282153,0.96429 0.285254,0.35346 0.787549,0.35346 0.399975,0 0.818554,-0.21704 l 0.06511,0.41238 q -0.337964,0.24495 -0.889868,0.24495 z" />
        <path
           id="path892"
           style="font-style:normal;font-variant:normal;font-weight:normal;font-stretch:normal;font-size:6.35px;font-family:oxygen;-inkscape-font-specification:oxygen;stroke-width:0.264583"
           d="m 87.978783,149.06554 q -0.226343,-0.27285 -0.623218,-0.27285 -0.396875,0 -0.648023,0.28215 -0.251147,0.27905 -0.294555,0.76585 h 1.795239 q 0,-0.5054 -0.229443,-0.77515 z m -0.520899,2.84324 q -0.74104,0 -1.168921,-0.47129 -0.42478,-0.47129 -0.42478,-1.28985 0,-0.79065 0.412378,-1.28054 0.412378,-0.49299 1.085205,-0.50229 0.63252,0 1.001489,0.43408 0.372071,0.43098 0.372071,1.15342 0,0.0372 -0.0031,0.13642 0,0.0992 0,0.14263 h -2.334741 q 0.0093,0.57981 0.297656,0.90537 0.291455,0.32246 0.781348,0.32246 0.539502,0 1.082104,-0.28525 l 0.08061,0.41858 q -0.517797,0.31626 -1.181323,0.31626 z" />
        <path
           id="path894"
           style="font-style:normal;font-variant:normal;font-weight:normal;font-stretch:normal;font-size:6.35px;font-family:oxygen;-inkscape-font-specification:oxygen;stroke-width:0.264583"
           d="m 91.963039,149.23607 q -0.288355,-0.31316 -0.412378,-0.524 -0.124024,-0.21084 -0.124024,-0.48679 0,-0.46199 0.325562,-0.73174 0.328662,-0.27285 0.880566,-0.27285 0.325562,0 0.592212,0.10232 0.269751,0.0992 0.440283,0.32246 0.173633,0.22014 0.173633,0.5271 0,0.19844 -0.08061,0.37517 -0.07752,0.17363 -0.229444,0.31626 -0.148828,0.14263 -0.328662,0.25735 -0.176733,0.11472 -0.412378,0.22324 l 1.243335,1.33015 q 0.248047,-0.26045 0.440284,-0.69453 l 0.37517,0.28526 q -0.192236,0.42168 -0.492993,0.77514 l 0.561206,0.66973 q -0.229443,0.0868 -0.486792,0.16123 l -0.421679,-0.47749 q -0.638721,0.5147 -1.488282,0.5147 -0.784448,0 -1.193725,-0.34107 -0.406177,-0.34416 -0.406177,-0.95498 0,-0.47439 0.266651,-0.79685 0.269751,-0.32246 0.778247,-0.57981 z m 0.31936,0.35037 q -0.390674,0.19844 -0.604614,0.43408 -0.21084,0.23564 -0.21084,0.55811 0,0.39997 0.285254,0.62631 0.285254,0.22325 0.79375,0.22325 0.607715,0 1.103808,-0.39378 -0.229443,-0.24805 -0.685229,-0.72554 -0.452686,-0.47749 -0.682129,-0.72243 z m 0.359668,-1.91926 q -0.288355,0 -0.461987,0.14882 -0.173633,0.14573 -0.173633,0.40928 0,0.21084 0.111621,0.38757 0.114722,0.17364 0.353467,0.40308 0.189135,-0.093 0.303857,-0.16123 0.117822,-0.0682 0.241846,-0.16743 0.124023,-0.10232 0.179834,-0.22014 0.05891,-0.11783 0.05891,-0.26045 0,-0.25735 -0.176733,-0.39688 -0.176734,-0.14262 -0.437183,-0.14262 z" />
        <path
           id="path896"
           style="font-style:normal;font-variant:normal;font-weight:normal;font-stretch:normal;font-size:6.35px;font-family:oxygen;-inkscape-font-specification:oxygen;stroke-width:0.264583"
           d="m 99.308325,151.55531 -1.407666,-3.27422 -0.117822,-0.31316 0.0217,1.12241 v 2.74712 h -0.502295 v -4.58576 h 0.694531 l 1.596802,3.65249 1.581301,-3.65249 h 0.67593 v 4.58576 h -0.5209 v -2.75952 l 0.0217,-1.09761 -0.11472,0.31316 -1.404566,3.26182 z" />
        <path
           id="path898"
           style="font-style:normal;font-variant:normal;font-weight:normal;font-stretch:normal;font-size:6.35px;font-family:oxygen;-inkscape-font-specification:oxygen;stroke-width:0.264583"
           d="m 103.81968,151.4902 q 0.36897,0 0.64802,-0.20154 0.28216,-0.20464 0.36277,-0.5488 v -0.57361 q -0.0155,0 -0.18914,0.0155 -0.17053,0.0155 -0.22324,0.0186 -0.67282,0.0589 -0.93948,0.22015 -0.26355,0.16123 -0.26355,0.51779 0,0.27286 0.16124,0.41238 0.16123,0.13953 0.44338,0.13953 z m 1.12551,0.34726 q -0.0465,-0.19843 -0.0899,-0.42788 -0.28215,0.28216 -0.5302,0.39068 -0.24804,0.10852 -0.58291,0.10852 -0.47749,0 -0.76894,-0.24805 -0.28836,-0.25115 -0.28836,-0.71934 0,-0.52089 0.39378,-0.77204 0.39687,-0.25115 1.14101,-0.31316 0.10232,-0.009 0.30696,-0.0248 0.20774,-0.0186 0.31006,-0.0279 v -0.30076 q 0,-0.35967 -0.16743,-0.5333 -0.16743,-0.17363 -0.5271,-0.17363 -0.50229,0 -1.01389,0.24805 -0.0155,-0.0372 -0.0806,-0.21394 -0.0651,-0.17984 -0.0682,-0.18604 0.22634,-0.12712 0.5364,-0.20154 0.31316,-0.0775 0.63562,-0.0775 0.63562,0 0.91467,0.27905 0.28216,0.27595 0.28216,0.94258 v 2.25102 z" />
        <path
           id="path900"
           style="font-style:normal;font-variant:normal;font-weight:normal;font-stretch:normal;font-size:6.35px;font-family:oxygen;-inkscape-font-specification:oxygen;stroke-width:0.264583"
           d="m 107.67991,151.90878 q -0.75034,0 -1.17512,-0.4868 -0.42168,-0.48679 -0.42168,-1.27434 0.003,-0.79375 0.43098,-1.28674 0.43098,-0.49609 1.17822,-0.49609 0.26355,0 0.5085,0.0651 0.24804,0.0651 0.39067,0.17053 l -0.14263,0.40308 q -0.36277,-0.19534 -0.76584,-0.19534 -0.493,0 -0.78135,0.35967 -0.28525,0.35967 -0.28525,0.98288 0,0.60772 0.28215,0.96429 0.28525,0.35346 0.78755,0.35346 0.39997,0 0.81855,-0.21704 l 0.0651,0.41238 q -0.33797,0.24495 -0.88987,0.24495 z" />
        <path
           id="path902"
           style="font-style:normal;font-variant:normal;font-weight:normal;font-stretch:normal;font-size:6.35px;font-family:oxygen;-inkscape-font-specification:oxygen;stroke-width:0.264583"
           d="m 111.53393,151.83746 v -2.05569 q 0,-0.51159 -0.16433,-0.74414 -0.16123,-0.23254 -0.5674,-0.23254 -0.39068,0 -0.66043,0.19534 -0.26665,0.19533 -0.34726,0.50539 -0.0279,0.23255 -0.0279,0.5178 v 1.81384 h -0.5178 v -4.72219 l 0.5178,-0.031 v 1.38286 q 0,0.17673 -0.0124,0.43718 0.43718,-0.5395 1.15962,-0.5395 1.13791,0 1.13791,1.33635 v 2.1363 z" />
        <path
           id="path904"
           style="font-style:normal;font-variant:normal;font-weight:normal;font-stretch:normal;font-size:6.35px;font-family:oxygen;-inkscape-font-specification:oxygen;stroke-width:0.264583"
           d="m 113.30127,148.43612 v 3.40134 h -0.5209 v -3.40134 z m 0,-1.23713 v 0.61391 h -0.5209 v -0.61391 z" />
        <path
           id="path906"
           style="font-style:normal;font-variant:normal;font-weight:normal;font-stretch:normal;font-size:6.35px;font-family:oxygen;-inkscape-font-specification:oxygen;stroke-width:0.264583"
           d="m 114.27485,151.83746 v -3.40134 h 0.43409 l 0.0651,0.48679 q 0.20154,-0.25114 0.50229,-0.40307 0.30386,-0.15503 0.65423,-0.15503 0.58911,0 0.87126,0.33176 0.28216,0.32866 0.28216,1.01389 v 2.127 h -0.5178 q 0,-2.04638 -0.003,-2.19211 -0.0124,-0.43408 -0.17674,-0.63562 -0.16123,-0.20154 -0.5426,-0.20154 -0.39997,0 -0.66663,0.19224 -0.26665,0.19223 -0.34726,0.49919 -0.031,0.20774 -0.031,0.47749 v 1.86035 z" />
        <path
           id="path908"
           style="font-style:normal;font-variant:normal;font-weight:normal;font-stretch:normal;font-size:6.35px;font-family:oxygen;-inkscape-font-specification:oxygen;stroke-width:0.264583"
           d="m 119.90551,149.06554 q -0.22634,-0.27285 -0.62321,-0.27285 -0.39688,0 -0.64803,0.28215 -0.25114,0.27905 -0.29455,0.76585 h 1.79524 q 0,-0.5054 -0.22945,-0.77515 z m -0.52089,2.84324 q -0.74104,0 -1.16893,-0.47129 -0.42478,-0.47129 -0.42478,-1.28985 0,-0.79065 0.41238,-1.28054 0.41238,-0.49299 1.08521,-0.50229 0.63252,0 1.00149,0.43408 0.37207,0.43098 0.37207,1.15342 0,0.0372 -0.003,0.13642 0,0.0992 0,0.14263 h -2.33475 q 0.009,0.57981 0.29766,0.90537 0.29146,0.32246 0.78135,0.32246 0.5395,0 1.0821,-0.28525 l 0.0806,0.41858 q -0.5178,0.31626 -1.18132,0.31626 z" />
        <path
           id="path910"
           style="font-style:normal;font-variant:normal;font-weight:normal;font-stretch:normal;font-size:6.35px;font-family:oxygen;-inkscape-font-specification:oxygen;stroke-width:0.264583"
           d="m 123.06191,151.83746 v -4.58576 h 0.53951 v 4.10827 h 2.01848 l -0.0186,0.47749 z" />
        <path
           id="path912"
           style="font-style:normal;font-variant:normal;font-weight:normal;font-stretch:normal;font-size:6.35px;font-family:oxygen;-inkscape-font-specification:oxygen;stroke-width:0.264583"
           d="m 128.09106,149.06554 q -0.22634,-0.27285 -0.62322,-0.27285 -0.39687,0 -0.64802,0.28215 -0.25115,0.27905 -0.29456,0.76585 h 1.79524 q 0,-0.5054 -0.22944,-0.77515 z m -0.5209,2.84324 q -0.74104,0 -1.16892,-0.47129 -0.42478,-0.47129 -0.42478,-1.28985 0,-0.79065 0.41238,-1.28054 0.41238,-0.49299 1.0852,-0.50229 0.63252,0 1.00149,0.43408 0.37207,0.43098 0.37207,1.15342 0,0.0372 -0.003,0.13642 0,0.0992 0,0.14263 h -2.33474 q 0.009,0.57981 0.29766,0.90537 0.29145,0.32246 0.78135,0.32246 0.5395,0 1.0821,-0.28525 l 0.0806,0.41858 q -0.5178,0.31626 -1.18133,0.31626 z" />
        <path
           id="path914"
           style="font-style:normal;font-variant:normal;font-weight:normal;font-stretch:normal;font-size:6.35px;font-family:oxygen;-inkscape-font-specification:oxygen;stroke-width:0.264583"
           d="m 130.51262,151.4902 q 0.36897,0 0.64803,-0.20154 0.28215,-0.20464 0.36276,-0.5488 v -0.57361 q -0.0155,0 -0.18913,0.0155 -0.17053,0.0155 -0.22324,0.0186 -0.67283,0.0589 -0.93948,0.22015 -0.26355,0.16123 -0.26355,0.51779 0,0.27286 0.16123,0.41238 0.16123,0.13953 0.44338,0.13953 z m 1.12552,0.34726 q -0.0465,-0.19843 -0.0899,-0.42788 -0.28215,0.28216 -0.5302,0.39068 -0.24805,0.10852 -0.58291,0.10852 -0.47749,0 -0.76895,-0.24805 -0.28835,-0.25115 -0.28835,-0.71934 0,-0.52089 0.39377,-0.77204 0.39688,-0.25115 1.14102,-0.31316 0.10232,-0.009 0.30696,-0.0248 0.20774,-0.0186 0.31005,-0.0279 v -0.30076 q 0,-0.35967 -0.16743,-0.5333 -0.16743,-0.17363 -0.5271,-0.17363 -0.50229,0 -1.01389,0.24805 -0.0155,-0.0372 -0.0806,-0.21394 -0.0651,-0.17984 -0.0682,-0.18604 0.22635,-0.12712 0.53641,-0.20154 0.31315,-0.0775 0.63562,-0.0775 0.63562,0 0.91467,0.27905 0.28215,0.27595 0.28215,0.94258 v 2.25102 z" />
        <path
           id="path916"
           style="font-style:normal;font-variant:normal;font-weight:normal;font-stretch:normal;font-size:6.35px;font-family:oxygen;-inkscape-font-specification:oxygen;stroke-width:0.264583"
           d="m 134.45967,148.40511 q 0.13952,0 0.25425,0.0186 l -0.0186,0.47749 q -0.14263,-0.0248 -0.24805,-0.0248 -0.43408,0 -0.70693,0.30386 -0.26975,0.30076 -0.26975,0.74724 v 1.90996 h -0.5178 q -0.003,-3.13159 -0.003,-3.40134 h 0.43098 l 0.0496,0.61082 q 0.17674,-0.28836 0.44959,-0.46509 0.27285,-0.17674 0.57981,-0.17674 z" />
        <path
           id="path918"
           style="font-style:normal;font-variant:normal;font-weight:normal;font-stretch:normal;font-size:6.35px;font-family:oxygen;-inkscape-font-specification:oxygen;stroke-width:0.264583"
           d="m 135.24721,151.83746 v -3.40134 h 0.43409 l 0.0651,0.48679 q 0.20154,-0.25114 0.50229,-0.40307 0.30386,-0.15503 0.65423,-0.15503 0.58911,0 0.87126,0.33176 0.28215,0.32866 0.28215,1.01389 v 2.127 h -0.51779 q 0,-2.04638 -0.003,-2.19211 -0.0124,-0.43408 -0.17674,-0.63562 -0.16123,-0.20154 -0.5426,-0.20154 -0.39998,0 -0.66663,0.19224 -0.26665,0.19223 -0.34726,0.49919 -0.031,0.20774 -0.031,0.47749 v 1.86035 z" />
        <path
           id="path920"
           style="font-style:normal;font-variant:normal;font-weight:normal;font-stretch:normal;font-size:6.35px;font-family:oxygen;-inkscape-font-specification:oxygen;stroke-width:0.264583"
           d="m 139.52913,148.43612 v 3.40134 h -0.5209 v -3.40134 z m 0,-1.23713 v 0.61391 h -0.5209 v -0.61391 z" />
        <path
           id="path922"
           style="font-style:normal;font-variant:normal;font-weight:normal;font-stretch:normal;font-size:6.35px;font-family:oxygen;-inkscape-font-specification:oxygen;stroke-width:0.264583"
           d="m 140.50271,151.83746 v -3.40134 h 0.43408 l 0.0651,0.48679 q 0.20154,-0.25114 0.5023,-0.40307 0.30385,-0.15503 0.65422,-0.15503 0.58911,0 0.87126,0.33176 0.28216,0.32866 0.28216,1.01389 v 2.127 h -0.5178 q 0,-2.04638 -0.003,-2.19211 -0.0124,-0.43408 -0.17673,-0.63562 -0.16124,-0.20154 -0.54261,-0.20154 -0.39997,0 -0.66662,0.19224 -0.26665,0.19223 -0.34727,0.49919 -0.031,0.20774 -0.031,0.47749 v 1.86035 z" />
        <path
           id="path924"
           style="font-style:normal;font-variant:normal;font-weight:normal;font-stretch:normal;font-size:6.35px;font-family:oxygen;-inkscape-font-specification:oxygen;stroke-width:0.264583"
           d="m 145.49465,151.39408 q 0.26355,0 0.46199,-0.093 0.19844,-0.093 0.31006,-0.25735 0.11162,-0.16433 0.16433,-0.36587 0.0558,-0.20153 0.0558,-0.44028 v -0.25115 q 0,-0.24804 -0.0558,-0.45578 -0.0558,-0.21084 -0.17363,-0.37517 -0.11473,-0.16744 -0.31006,-0.26045 -0.19224,-0.093 -0.44959,-0.093 -0.21394,0 -0.39067,0.0806 -0.17363,0.0806 -0.28836,0.21394 -0.11162,0.13022 -0.19223,0.30695 -0.0775,0.17364 -0.11162,0.35347 -0.0341,0.17983 -0.0341,0.36277 0,0.17983 0.0372,0.35657 0.0372,0.17673 0.11782,0.34416 0.0806,0.16743 0.19534,0.29456 0.11472,0.12402 0.28525,0.20153 0.17363,0.0775 0.37827,0.0775 z m -0.79685,1.99988 -0.0465,-0.46819 h 0.63252 q 0.26355,0 0.45889,-0.0372 0.19534,-0.0372 0.32556,-0.12402 0.13023,-0.0837 0.21084,-0.18914 0.0806,-0.10232 0.12092,-0.26975 0.0434,-0.16433 0.0558,-0.32866 0.0155,-0.16123 0.0155,-0.39688 v -0.30075 q -0.18604,0.26665 -0.43098,0.41238 -0.24495,0.14262 -0.62322,0.14262 -0.29146,0 -0.5395,-0.0992 -0.24495,-0.10232 -0.41548,-0.26975 -0.16743,-0.16743 -0.28836,-0.38757 -0.11782,-0.22014 -0.17363,-0.45579 -0.0527,-0.23564 -0.0527,-0.47439 0,-0.37207 0.0899,-0.68833 0.093,-0.31626 0.27285,-0.5643 0.17983,-0.24805 0.47129,-0.38758 0.29455,-0.14262 0.67282,-0.14262 0.33487,0 0.58292,0.13022 0.25114,0.12713 0.44958,0.39378 v -0.45269 h 0.5054 v 3.1564 q 0,0.21704 -0.0124,0.37827 -0.009,0.16433 -0.0527,0.36277 -0.0403,0.19843 -0.11162,0.34106 -0.0713,0.14263 -0.20154,0.28526 -0.12712,0.14572 -0.30695,0.23254 -0.17674,0.0899 -0.44029,0.14573 -0.26355,0.0558 -0.59531,0.0558 z" />
      </g>
      <g
         style="font-style:normal;font-variant:normal;font-weight:normal;font-stretch:normal;font-size:10.5833px;line-height:0.95;font-family:oxygen;-inkscape-font-specification:oxygen;display:inline;fill:#000000;fill-opacity:1;stroke:none;stroke-width:0.264583"
         id="text12-3"
         aria-label="Paulo Breviglieri">
        <path
           id="path927"
           style="font-style:normal;font-variant:normal;font-weight:normal;font-stretch:normal;font-size:12.7px;font-family:oxygen;-inkscape-font-specification:oxygen;fill:#000080;fill-opacity:1;stroke:none;stroke-width:0.264583;stroke-opacity:1"
           d="m 53.472366,142.83011 h -1.097608 v -9.27695 h 2.988965 q 0.682129,0 1.234033,0.14262 0.551904,0.14263 0.979785,0.43408 0.427881,0.29146 0.663526,0.78135 0.235644,0.48989 0.235644,1.14102 0,0.5395 -0.09922,0.96738 -0.09922,0.42168 -0.341064,0.79375 -0.241846,0.37207 -0.63252,0.62012 -0.390673,0.24184 -1.004589,0.38447 -0.607715,0.13643 -1.413868,0.13643 -0.63872,0 -1.513085,-0.0806 z m 1.618505,-4.82451 q 0.607715,0 1.041797,-0.11783 0.434082,-0.11782 0.663526,-0.29145 0.235644,-0.17363 0.365869,-0.45269 0.136426,-0.27905 0.167431,-0.50849 0.03101,-0.23565 0.03101,-0.56431 0,-0.78755 -0.533301,-1.15962 -0.527099,-0.37207 -1.438671,-0.37207 h -1.916162 v 3.45405 q 1.196826,0.0124 1.618505,0.0124 z" />
        <path
           id="path929"
           style="font-style:normal;font-variant:normal;font-weight:normal;font-stretch:normal;font-size:12.7px;font-family:oxygen;-inkscape-font-specification:oxygen;fill:#000080;fill-opacity:1;stroke:none;stroke-width:0.264583;stroke-opacity:1"
           d="m 61.465676,142.13558 q 0.737939,0 1.296045,-0.40308 0.564306,-0.40928 0.725537,-1.09761 v -1.14721 q -0.03101,0 -0.378272,0.031 -0.341064,0.031 -0.446484,0.0372 -1.345654,0.11782 -1.878955,0.44028 -0.5271,0.32246 -0.5271,1.0356 0,0.5457 0.322461,0.82475 0.322461,0.27906 0.886768,0.27906 z m 2.251025,0.69453 q -0.09302,-0.39688 -0.179834,-0.85576 -0.564306,0.5643 -1.0604,0.78134 -0.496094,0.21705 -1.165821,0.21705 -0.95498,0 -1.53789,-0.4961 -0.576709,-0.50229 -0.576709,-1.43867 0,-1.0418 0.787549,-1.54409 0.79375,-0.5023 2.282031,-0.62632 0.204639,-0.0186 0.613916,-0.0496 0.415478,-0.0372 0.620117,-0.0558 v -0.60151 q 0,-0.71934 -0.334863,-1.06661 -0.334863,-0.34726 -1.054199,-0.34726 -1.00459,0 -2.027784,0.49609 -0.03101,-0.0744 -0.16123,-0.42788 -0.130225,-0.35967 -0.136426,-0.37207 0.452686,-0.25425 1.072803,-0.40307 0.626318,-0.15503 1.27124,-0.15503 1.27124,0 1.829346,0.5581 0.564306,0.55191 0.564306,1.88516 v 4.50205 z" />
        <path
           id="path931"
           style="font-style:normal;font-variant:normal;font-weight:normal;font-stretch:normal;font-size:12.7px;font-family:oxygen;-inkscape-font-specification:oxygen;fill:#000080;fill-opacity:1;stroke:none;stroke-width:0.264583;stroke-opacity:1"
           d="m 66.073147,140.56048 v -4.53306 h 1.041797 v 4.54546 q 0,0.44649 0.124023,0.75655 0.130225,0.31005 0.365869,0.48369 0.241846,0.16743 0.539502,0.24184 0.303858,0.0744 0.694531,0.0744 0.806153,0 1.252637,-0.35347 0.452686,-0.35347 0.452686,-1.20303 v -4.54546 h 1.041797 v 4.53306 q 0,0.5209 -0.148829,0.93638 -0.148828,0.41548 -0.403076,0.69453 -0.248047,0.27285 -0.601513,0.45268 -0.353467,0.17984 -0.750342,0.26045 -0.390674,0.0806 -0.84336,0.0806 -0.446484,0 -0.843359,-0.0806 -0.396875,-0.0806 -0.756543,-0.26045 -0.353467,-0.18603 -0.613916,-0.45888 -0.254248,-0.27906 -0.403076,-0.69453 -0.148828,-0.41548 -0.148828,-0.93018 z" />
        <path
           id="path933"
           style="font-style:normal;font-variant:normal;font-weight:normal;font-stretch:normal;font-size:12.7px;font-family:oxygen;-inkscape-font-specification:oxygen;fill:#000080;fill-opacity:1;stroke:none;stroke-width:0.264583;stroke-opacity:1"
           d="m 74.959426,142.95413 q -0.992187,0 -1.407666,-0.5333 -0.409277,-0.5333 -0.409277,-1.85415 v -7.18096 l 1.029394,-0.062 v 6.83369 q 0,0.42168 0.0062,0.67593 0.0124,0.25425 0.04961,0.5023 0.03721,0.24184 0.09922,0.36587 0.06201,0.12402 0.179834,0.22944 0.117822,0.0992 0.279052,0.13642 0.167432,0.031 0.409278,0.031 0.198437,0 0.781347,-0.0744 l 0.05581,0.82475 q -0.638721,0.10542 -1.072803,0.10542 z" />
        <path
           id="path935"
           style="font-style:normal;font-variant:normal;font-weight:normal;font-stretch:normal;font-size:12.7px;font-family:oxygen;-inkscape-font-specification:oxygen;fill:#000080;fill-opacity:1;stroke:none;stroke-width:0.264583;stroke-opacity:1"
           d="m 77.415089,139.44427 q 0,1.20923 0.5333,1.94097 0.539502,0.72553 1.568897,0.72553 1.016992,0 1.531689,-0.72553 0.520899,-0.72554 0.520899,-1.95337 0,-1.24644 -0.514698,-1.95957 -0.508496,-0.71934 -1.556494,-0.71934 -1.016992,0 -1.550293,0.73174 -0.5333,0.73174 -0.5333,1.95957 z m 5.227587,-0.0186 q 0,1.58129 -0.843359,2.56728 -0.843359,0.97979 -2.331641,0.97979 -1.43247,0 -2.282031,-0.99219 -0.843359,-0.99219 -0.843359,-2.54868 0,-1.5875 0.84956,-2.56729 0.849561,-0.97978 2.331641,-0.97978 1.457275,0 2.288232,0.98598 0.830957,0.97979 0.830957,2.55489 z" />
        <path
           id="path937"
           style="font-style:normal;font-variant:normal;font-weight:normal;font-stretch:normal;font-size:12.7px;font-family:oxygen;-inkscape-font-specification:oxygen;fill:#000080;fill-opacity:1;stroke:none;stroke-width:0.264583;stroke-opacity:1"
           d="m 88.53999,138.46448 v 3.48506 h 1.916162 q 1.165821,0 1.748731,-0.42788 0.58291,-0.43408 0.58291,-1.34565 0,-0.94878 -0.63252,-1.32705 -0.626318,-0.38448 -1.95957,-0.38448 z m 0,-0.86196 h 1.965772 q 0.961181,0 1.451074,-0.33486 0.489892,-0.33487 0.489892,-1.19063 0,-0.86196 -0.589111,-1.18442 -0.58291,-0.32866 -1.816943,-0.32866 H 88.53999 Z m -1.072803,-3.94394 h 2.629297 q 1.767334,0 2.616895,0.5395 0.855762,0.5395 0.855762,1.71772 0,0.17363 -0.02481,0.34727 -0.0186,0.16743 -0.111621,0.43408 -0.08682,0.26665 -0.241846,0.48989 -0.155029,0.21704 -0.458887,0.44029 -0.297656,0.21704 -0.700732,0.34726 0.923975,0.17363 1.401465,0.78135 0.47749,0.60771 0.47749,1.46348 0,1.24643 -0.818555,1.92856 -0.812353,0.68213 -2.424658,0.68213 h -3.199805 z" />
        <path
           id="path939"
           style="font-style:normal;font-variant:normal;font-weight:normal;font-stretch:normal;font-size:12.7px;font-family:oxygen;-inkscape-font-specification:oxygen;fill:#000080;fill-opacity:1;stroke:none;stroke-width:0.264583;stroke-opacity:1"
           d="m 98.300636,135.96541 q 0.279053,0 0.508496,0.0372 l -0.03721,0.95498 q -0.285254,-0.0496 -0.496093,-0.0496 -0.868165,0 -1.413868,0.60771 -0.539502,0.60152 -0.539502,1.49449 v 3.81992 h -1.035595 q -0.0062,-6.26318 -0.0062,-6.80269 h 0.861962 l 0.09922,1.22163 q 0.353467,-0.5767 0.89917,-0.93017 0.545703,-0.35347 1.159619,-0.35347 z" />
        <path
           id="path941"
           style="font-style:normal;font-variant:normal;font-weight:normal;font-stretch:normal;font-size:12.7px;font-family:oxygen;-inkscape-font-specification:oxygen;fill:#000080;fill-opacity:1;stroke:none;stroke-width:0.264583;stroke-opacity:1"
           d="m 103.67085,137.28626 q -0.45268,-0.5457 -1.24643,-0.5457 -0.79375,0 -1.29605,0.5643 -0.50229,0.55811 -0.58911,1.53169 h 3.59048 q 0,-1.01079 -0.45889,-1.55029 z m -1.04179,5.68648 q -1.48208,0 -2.33785,-0.94258 -0.849557,-0.94258 -0.849557,-2.57969 0,-1.5813 0.824757,-2.56108 0.82476,-0.98599 2.17041,-1.00459 1.26504,0 2.00298,0.86816 0.74414,0.86196 0.74414,2.30684 0,0.0744 -0.006,0.27285 0,0.19844 0,0.28525 h -4.66949 q 0.0186,1.15962 0.59532,1.81074 0.58291,0.64493 1.56269,0.64493 1.07901,0 2.16421,-0.57051 l 0.16123,0.83716 q -1.03559,0.63252 -2.36264,0.63252 z" />
        <path
           id="path943"
           style="font-style:normal;font-variant:normal;font-weight:normal;font-stretch:normal;font-size:12.7px;font-family:oxygen;-inkscape-font-specification:oxygen;fill:#000080;fill-opacity:1;stroke:none;stroke-width:0.264583;stroke-opacity:1"
           d="m 108.36514,142.83011 -2.6355,-6.80269 h 1.11001 l 1.50068,4.04317 q 0,0 0.62012,1.72392 0.21084,-0.66352 0.58291,-1.71152 0.47129,-1.32085 1.46348,-4.05557 h 1.1038 l -2.61689,6.80269 z" />
        <path
           id="path945"
           style="font-style:normal;font-variant:normal;font-weight:normal;font-stretch:normal;font-size:12.7px;font-family:oxygen;-inkscape-font-specification:oxygen;fill:#000080;fill-opacity:1;stroke:none;stroke-width:0.264583;stroke-opacity:1"
           d="m 114.23765,136.02742 v 6.80269 h -1.0418 v -6.80269 z m 0,-2.47426 v 1.22783 h -1.0418 v -1.22783 z" />
        <path
           id="path947"
           style="font-style:normal;font-variant:normal;font-weight:normal;font-stretch:normal;font-size:12.7px;font-family:oxygen;-inkscape-font-specification:oxygen;fill:#000080;fill-opacity:1;stroke:none;stroke-width:0.264583;stroke-opacity:1"
           d="m 118.82652,141.94334 q 0.5271,0 0.92397,-0.18603 0.39688,-0.18604 0.62012,-0.5147 0.22324,-0.32866 0.32866,-0.73174 0.11162,-0.40308 0.11162,-0.88057 v -0.50229 q 0,-0.49609 -0.11162,-0.91157 -0.11162,-0.42168 -0.34727,-0.75034 -0.22944,-0.33487 -0.62011,-0.5209 -0.38447,-0.18604 -0.89917,-0.18604 -0.42788,0 -0.78135,0.16123 -0.34727,0.16123 -0.57671,0.42788 -0.22324,0.26045 -0.38447,0.61392 -0.15503,0.34726 -0.22324,0.70693 -0.0682,0.35967 -0.0682,0.72554 0,0.35967 0.0744,0.71313 0.0744,0.35347 0.23564,0.68833 0.16123,0.33487 0.39068,0.58912 0.22944,0.24804 0.5705,0.40307 0.34727,0.15503 0.75655,0.15503 z m -1.5937,3.99976 -0.093,-0.93638 h 1.26504 q 0.5271,0 0.91777,-0.0744 0.39067,-0.0744 0.65112,-0.24805 0.26045,-0.16743 0.42168,-0.37827 0.16123,-0.20464 0.24185,-0.5395 0.0868,-0.32867 0.11162,-0.65733 0.031,-0.32246 0.031,-0.79375 v -0.60151 q -0.37207,0.5333 -0.86197,0.82475 -0.48989,0.28526 -1.24643,0.28526 -0.58291,0 -1.07901,-0.19844 -0.48989,-0.20464 -0.83095,-0.5395 -0.33487,-0.33487 -0.57671,-0.77515 -0.23565,-0.44028 -0.34727,-0.91157 -0.10542,-0.47129 -0.10542,-0.94878 0,-0.74414 0.17984,-1.37666 0.18603,-0.63252 0.5457,-1.12861 0.35967,-0.4961 0.94258,-0.77515 0.58911,-0.28525 1.34565,-0.28525 0.66973,0 1.16582,0.26045 0.5023,0.25424 0.89917,0.78754 v -0.90537 h 1.01079 v 6.3128 q 0,0.43408 -0.0248,0.75654 -0.0186,0.32866 -0.10542,0.72554 -0.0806,0.39687 -0.22324,0.68213 -0.14263,0.28525 -0.40308,0.5705 -0.25425,0.29146 -0.61392,0.46509 -0.35346,0.17983 -0.88056,0.29146 -0.5271,0.11162 -1.19063,0.11162 z" />
        <path
           id="path949"
           style="font-style:normal;font-variant:normal;font-weight:normal;font-stretch:normal;font-size:12.7px;font-family:oxygen;-inkscape-font-specification:oxygen;fill:#000080;fill-opacity:1;stroke:none;stroke-width:0.264583;stroke-opacity:1"
           d="m 125.37495,142.95413 q -0.99218,0 -1.40766,-0.5333 -0.40928,-0.5333 -0.40928,-1.85415 v -7.18096 l 1.02939,-0.062 v 6.83369 q 0,0.42168 0.006,0.67593 0.0124,0.25425 0.0496,0.5023 0.0372,0.24184 0.0992,0.36587 0.062,0.12402 0.17984,0.22944 0.11782,0.0992 0.27905,0.13642 0.16743,0.031 0.40928,0.031 0.19844,0 0.78135,-0.0744 l 0.0558,0.82475 q -0.63872,0.10542 -1.07281,0.10542 z" />
        <path
           id="path951"
           style="font-style:normal;font-variant:normal;font-weight:normal;font-stretch:normal;font-size:12.7px;font-family:oxygen;-inkscape-font-specification:oxygen;fill:#000080;fill-opacity:1;stroke:none;stroke-width:0.264583;stroke-opacity:1"
           d="m 128.2957,136.02742 v 6.80269 h -1.04179 v -6.80269 z m 0,-2.47426 v 1.22783 h -1.04179 v -1.22783 z" />
        <path
           id="path953"
           style="font-style:normal;font-variant:normal;font-weight:normal;font-stretch:normal;font-size:12.7px;font-family:oxygen;-inkscape-font-specification:oxygen;fill:#000080;fill-opacity:1;stroke:none;stroke-width:0.264583;stroke-opacity:1"
           d="m 134.16201,137.28626 q -0.45268,-0.5457 -1.24643,-0.5457 -0.79375,0 -1.29605,0.5643 -0.50229,0.55811 -0.58911,1.53169 h 3.59048 q 0,-1.01079 -0.45889,-1.55029 z m -1.04179,5.68648 q -1.48208,0 -2.33784,-0.94258 -0.84957,-0.94258 -0.84957,-2.57969 0,-1.5813 0.82476,-2.56108 0.82476,-0.98599 2.17041,-1.00459 1.26504,0 2.00298,0.86816 0.74414,0.86196 0.74414,2.30684 0,0.0744 -0.006,0.27285 0,0.19844 0,0.28525 h -4.66948 q 0.0186,1.15962 0.59531,1.81074 0.58291,0.64493 1.56269,0.64493 1.07901,0 2.16421,-0.57051 l 0.16123,0.83716 q -1.03559,0.63252 -2.36264,0.63252 z" />
        <path
           id="path955"
           style="font-style:normal;font-variant:normal;font-weight:normal;font-stretch:normal;font-size:12.7px;font-family:oxygen;-inkscape-font-specification:oxygen;fill:#000080;fill-opacity:1;stroke:none;stroke-width:0.264583;stroke-opacity:1"
           d="m 140.16475,135.96541 q 0.27905,0 0.50849,0.0372 l -0.0372,0.95498 q -0.28525,-0.0496 -0.49609,-0.0496 -0.86816,0 -1.41387,0.60771 -0.5395,0.60152 -0.5395,1.49449 v 3.81992 h -1.03559 q -0.006,-6.26318 -0.006,-6.80269 h 0.86197 l 0.0992,1.22163 q 0.35346,-0.5767 0.89917,-0.93017 0.5457,-0.35347 1.15962,-0.35347 z" />
        <path
           id="path957"
           style="font-style:normal;font-variant:normal;font-weight:normal;font-stretch:normal;font-size:12.7px;font-family:oxygen;-inkscape-font-specification:oxygen;fill:#000080;fill-opacity:1;stroke:none;stroke-width:0.264583;stroke-opacity:1"
           d="m 142.96148,136.02742 v 6.80269 h -1.0418 v -6.80269 z m 0,-2.47426 v 1.22783 h -1.0418 v -1.22783 z" />
      </g>
    </g>
  </g>
</svg>
