<?xml version="1.0" encoding="UTF-8" standalone="no"?>
<svg
   xmlns:dc="http://purl.org/dc/elements/1.1/"
   xmlns:cc="http://creativecommons.org/ns#"
   xmlns:rdf="http://www.w3.org/1999/02/22-rdf-syntax-ns#"
   xmlns:svg="http://www.w3.org/2000/svg"
   xmlns="http://www.w3.org/2000/svg"
   xmlns:sodipodi="http://sodipodi.sourceforge.net/DTD/sodipodi-0.dtd"
   xmlns:inkscape="http://www.inkscape.org/namespaces/inkscape"
   inkscape:export-ydpi="138.66696"
   inkscape:export-xdpi="138.66696"
   inkscape:export-filename="/home/pb/Development/GitHub/logo.png"
   sodipodi:docname="logo-path.svg"
   inkscape:version="1.0 (4035a4fb49, 2020-05-01)"
   id="svg8"
   version="1.1"
   viewBox="0 0 105.65976 36.146106"
   height="136.6152"
   width="399.34399">
  <defs
     id="defs2" />
  <sodipodi:namedview
     fit-margin-left="1"
     fit-margin-bottom="25"
     units="px"
     fit-margin-top="25"
     fit-margin-right="1"
     inkscape:window-maximized="1"
     inkscape:window-y="45"
     inkscape:window-x="0"
     inkscape:window-height="686"
     inkscape:window-width="1366"
     showgrid="false"
     inkscape:document-rotation="0"
     inkscape:current-layer="layer1"
     inkscape:document-units="mm"
     inkscape:cy="62.935622"
     inkscape:cx="239.8466"
     inkscape:zoom="2.1106664"
     inkscape:pageshadow="2"
     inkscape:pageopacity="0.0"
     borderopacity="1.0"
     bordercolor="#666666"
     pagecolor="#ffffff"
     id="base" />
  <metadata
     id="metadata5">
    <rdf:RDF>
      <cc:Work
         rdf:about="">
        <dc:format>image/svg+xml</dc:format>
        <dc:type
           rdf:resource="http://purl.org/dc/dcmitype/StillImage" />
        <dc:title></dc:title>
      </cc:Work>
    </rdf:RDF>
  </metadata>
  <g
     id="layer1"
     inkscape:groupmode="layer"
     inkscape:label="Layer 1"
     style="display:inline"
     transform="translate(-52.170118,-130.42695)">
    <g
       style="font-style:normal;font-variant:normal;font-weight:normal;font-stretch:normal;font-size:10.5833px;line-height:0.95;font-family:oxygen;-inkscape-font-specification:oxygen;fill:#000000;fill-opacity:1;stroke:none;stroke-width:0.264583"
       id="text12"
       aria-label="Paulo Breviglieri
Data Science &amp; Machine Learning">
      <path
         id="path11"
         style="font-style:normal;font-variant:normal;font-weight:normal;font-stretch:normal;font-size:14.1111px;font-family:oxygen;-inkscape-font-specification:oxygen;fill:#000080;fill-opacity:1;stroke:none;stroke-width:0.264583;stroke-opacity:1"
         d="m 54.060785,147.60419 h -1.219563 v -10.30772 h 3.321069 q 0.757921,0 1.371147,0.15847 0.613227,0.15848 1.08865,0.48232 0.475422,0.32384 0.737249,0.86816 0.261827,0.54432 0.261827,1.26779 0,0.59945 -0.110243,1.07487 -0.110242,0.46854 -0.37896,0.88195 -0.268717,0.41341 -0.702799,0.68902 -0.434081,0.26871 -1.11621,0.42719 -0.675238,0.15158 -1.570962,0.15158 -0.709689,0 -1.681205,-0.0896 z m 1.798338,-5.36057 q 0.675238,0 1.157551,-0.13091 0.482313,-0.13091 0.73725,-0.32384 0.261827,-0.19292 0.406521,-0.50298 0.151584,-0.31006 0.186035,-0.565 0.03445,-0.26183 0.03445,-0.62701 0,-0.87505 -0.592556,-1.28846 -0.585666,-0.41341 -1.598523,-0.41341 h -2.129067 v 3.83783 q 1.329805,0.0138 1.798338,0.0138 z" />
      <path
         id="path13"
         style="font-style:normal;font-variant:normal;font-weight:normal;font-stretch:normal;font-size:14.1111px;font-family:oxygen;-inkscape-font-specification:oxygen;fill:#000080;fill-opacity:1;stroke:none;stroke-width:0.264583;stroke-opacity:1"
         d="m 62.942234,146.83249 q 0.819932,0 1.440049,-0.44787 0.627007,-0.45475 0.806151,-1.21956 v -1.27468 q -0.03445,0 -0.420301,0.0344 -0.37896,0.0345 -0.496093,0.0413 -1.495171,0.13091 -2.087727,0.4892 -0.585665,0.35829 -0.585665,1.15066 0,0.60634 0.358289,0.9164 0.35829,0.31006 0.985297,0.31006 z m 2.501137,0.7717 q -0.103353,-0.44097 -0.199815,-0.95085 -0.627007,0.62701 -1.178222,0.86816 -0.551215,0.24116 -1.295355,0.24116 -1.061088,0 -1.708766,-0.55121 -0.640787,-0.55811 -0.640787,-1.59853 0,-1.15755 0.875053,-1.71565 0.881944,-0.55811 2.535589,-0.69591 0.227376,-0.0207 0.682128,-0.0551 0.461643,-0.0413 0.689019,-0.062 v -0.66835 q 0,-0.79926 -0.37207,-1.18511 -0.37207,-0.38586 -1.171332,-0.38586 -1.11621,0 -2.253091,0.55122 -0.03445,-0.0827 -0.179144,-0.47542 -0.144694,-0.39963 -0.151584,-0.41341 0.502983,-0.2825 1.192002,-0.44787 0.695908,-0.17225 1.412488,-0.17225 1.412488,0 2.032604,0.62012 0.627007,0.61322 0.627007,2.09461 v 5.00228 z" />
      <path
         id="path15"
         style="font-style:normal;font-variant:normal;font-weight:normal;font-stretch:normal;font-size:14.1111px;font-family:oxygen;-inkscape-font-specification:oxygen;fill:#000080;fill-opacity:1;stroke:none;stroke-width:0.264583;stroke-opacity:1"
         d="m 68.061642,145.08238 v -5.03673 h 1.157552 v 5.05051 q 0,0.49609 0.137803,0.8406 0.144694,0.34451 0.406521,0.53744 0.268717,0.18603 0.599446,0.26871 0.33762,0.0827 0.771701,0.0827 0.895724,0 1.391818,-0.39274 0.502983,-0.39275 0.502983,-1.3367 v -5.05051 h 1.157551 v 5.03673 q 0,0.57877 -0.165364,1.04042 -0.165364,0.46164 -0.447862,0.7717 -0.275608,0.30317 -0.668348,0.50298 -0.392741,0.19982 -0.833713,0.28939 -0.434081,0.0896 -0.937065,0.0896 -0.496093,0 -0.937065,-0.0896 -0.440972,-0.0896 -0.840603,-0.28939 -0.39274,-0.2067 -0.682128,-0.50987 -0.282498,-0.31006 -0.447862,-0.7717 -0.165365,-0.46165 -0.165365,-1.03353 z" />
      <path
         id="path17"
         style="font-style:normal;font-variant:normal;font-weight:normal;font-stretch:normal;font-size:14.1111px;font-family:oxygen;-inkscape-font-specification:oxygen;fill:#000080;fill-opacity:1;stroke:none;stroke-width:0.264583;stroke-opacity:1"
         d="m 77.935279,147.74199 q -1.10243,0 -1.564072,-0.59256 -0.454753,-0.59255 -0.454753,-2.06016 v -7.97884 l 1.143771,-0.0689 v 7.59299 q 0,0.46853 0.0069,0.75103 0.01378,0.28249 0.05512,0.5581 0.04134,0.26872 0.110243,0.40652 0.0689,0.13781 0.199815,0.25494 0.130914,0.11024 0.310059,0.15158 0.186035,0.0345 0.454752,0.0345 0.220486,0 0.868163,-0.0827 l 0.06201,0.9164 q -0.709689,0.11713 -1.192002,0.11713 z" />
      <path
         id="path19"
         style="font-style:normal;font-variant:normal;font-weight:normal;font-stretch:normal;font-size:14.1111px;font-family:oxygen;-inkscape-font-specification:oxygen;fill:#000080;fill-opacity:1;stroke:none;stroke-width:0.264583;stroke-opacity:1"
         d="m 80.663792,143.84215 q 0,1.34358 0.592556,2.15662 0.599446,0.80616 1.743217,0.80616 1.12999,0 1.701876,-0.80616 0.578775,-0.80615 0.578775,-2.1704 0,-1.38493 -0.571885,-2.1773 -0.564996,-0.79926 -1.729437,-0.79926 -1.12999,0 -1.722546,0.81304 -0.592556,0.81304 -0.592556,2.1773 z m 5.808426,-0.0207 q 0,1.75699 -0.937065,2.85253 -0.937065,1.08865 -2.59071,1.08865 -1.591633,0 -2.535588,-1.10243 -0.937065,-1.10243 -0.937065,-2.83186 0,-1.76389 0.943955,-2.85254 0.943955,-1.08865 2.59071,-1.08865 1.619193,0 2.542478,1.09554 0.923285,1.08865 0.923285,2.83876 z" />
      <path
         id="path21"
         style="font-style:normal;font-variant:normal;font-weight:normal;font-stretch:normal;font-size:14.1111px;font-family:oxygen;-inkscape-font-specification:oxygen;fill:#000080;fill-opacity:1;stroke:none;stroke-width:0.264583;stroke-opacity:1"
         d="m 93.024783,142.7535 v 3.87228 h 2.129067 q 1.295355,0 1.943032,-0.47542 0.647678,-0.48232 0.647678,-1.49517 0,-1.0542 -0.702799,-1.4745 -0.695909,-0.42719 -2.177299,-0.42719 z m 0,-0.95774 h 2.184189 q 1.067978,0 1.612303,-0.37207 0.544325,-0.37207 0.544325,-1.32292 0,-0.95773 -0.654568,-1.31602 -0.647677,-0.36518 -2.018824,-0.36518 h -1.667425 z m -1.192002,-4.38216 h 2.921438 q 1.963703,0 2.907659,0.59945 0.950845,0.59944 0.950845,1.90858 0,0.19293 -0.02756,0.38585 -0.02067,0.18604 -0.124023,0.48231 -0.09646,0.29628 -0.268717,0.54433 -0.172255,0.24115 -0.509874,0.4892 -0.330729,0.24116 -0.778591,0.38585 1.026638,0.19293 1.557182,0.86817 0.530544,0.67523 0.530544,1.62608 0,1.38493 -0.909504,2.14285 -0.902614,0.75792 -2.694063,0.75792 h -3.555335 z" />
      <path
         id="path23"
         style="font-style:normal;font-variant:normal;font-weight:normal;font-stretch:normal;font-size:14.1111px;font-family:oxygen;-inkscape-font-specification:oxygen;fill:#000080;fill-opacity:1;stroke:none;stroke-width:0.264583;stroke-opacity:1"
         d="m 103.86993,139.97675 q 0.31006,0 0.565,0.0413 l -0.0413,1.06109 q -0.31695,-0.0551 -0.55122,-0.0551 -0.96462,0 -1.57096,0.67524 -0.59944,0.66835 -0.59944,1.66053 v 4.24436 h -1.15067 q -0.007,-6.95909 -0.007,-7.55854 h 0.95774 l 0.11024,1.35737 q 0.39274,-0.64079 0.99908,-1.03353 0.60634,-0.39274 1.28846,-0.39274 z" />
      <path
         id="path25"
         style="font-style:normal;font-variant:normal;font-weight:normal;font-stretch:normal;font-size:14.1111px;font-family:oxygen;-inkscape-font-specification:oxygen;fill:#000080;fill-opacity:1;stroke:none;stroke-width:0.264583;stroke-opacity:1"
         d="m 109.83684,141.44436 q -0.50299,-0.60634 -1.38493,-0.60634 -0.88194,0 -1.44005,0.62701 -0.5581,0.62012 -0.65457,1.70188 h 3.98942 q 0,-1.1231 -0.50987,-1.72255 z m -1.15755,6.3183 q -1.64676,0 -2.5976,-1.04731 -0.94396,-1.04731 -0.94396,-2.86631 0,-1.757 0.9164,-2.84565 0.91639,-1.09554 2.41156,-1.11621 1.4056,0 2.22553,0.96463 0.82682,0.95773 0.82682,2.56314 0,0.0827 -0.007,0.30317 0,0.22049 0,0.31695 h -5.18831 q 0.0207,1.28847 0.66146,2.01194 0.64768,0.71657 1.73633,0.71657 1.19889,0 2.40467,-0.63389 l 0.17915,0.93017 q -1.15066,0.7028 -2.62516,0.7028 z" />
      <path
         id="path27"
         style="font-style:normal;font-variant:normal;font-weight:normal;font-stretch:normal;font-size:14.1111px;font-family:oxygen;-inkscape-font-specification:oxygen;fill:#000080;fill-opacity:1;stroke:none;stroke-width:0.264583;stroke-opacity:1"
         d="m 115.05271,147.60419 -2.92833,-7.55854 h 1.23334 l 1.66743,4.4924 q 0,0 0.68901,1.91548 0.23427,-0.73725 0.64768,-1.9017 0.52366,-1.4676 1.62609,-4.50618 h 1.22645 l -2.90766,7.55854 z" />
      <path
         id="path29"
         style="font-style:normal;font-variant:normal;font-weight:normal;font-stretch:normal;font-size:14.1111px;font-family:oxygen;-inkscape-font-specification:oxygen;fill:#000080;fill-opacity:1;stroke:none;stroke-width:0.264583;stroke-opacity:1"
         d="m 121.57771,140.04565 v 7.55854 h -1.15755 v -7.55854 z m 0,-2.74918 v 1.36426 h -1.15755 v -1.36426 z" />
      <path
         id="path31"
         style="font-style:normal;font-variant:normal;font-weight:normal;font-stretch:normal;font-size:14.1111px;font-family:oxygen;-inkscape-font-specification:oxygen;fill:#000080;fill-opacity:1;stroke:none;stroke-width:0.264583;stroke-opacity:1"
         d="m 126.67645,146.61889 q 0.58566,0 1.02664,-0.20671 0.44097,-0.2067 0.68901,-0.57188 0.24805,-0.36518 0.36518,-0.81304 0.12403,-0.44786 0.12403,-0.97841 v -0.5581 q 0,-0.55122 -0.12403,-1.01286 -0.12402,-0.46853 -0.38585,-0.83371 -0.25493,-0.37207 -0.68902,-0.57878 -0.42719,-0.2067 -0.99907,-0.2067 -0.47543,0 -0.86817,0.17914 -0.38585,0.17914 -0.64078,0.47542 -0.24805,0.28939 -0.42719,0.68213 -0.17226,0.38585 -0.24805,0.78548 -0.0758,0.39963 -0.0758,0.80615 0,0.39963 0.0827,0.79238 0.0827,0.39274 0.26183,0.76481 0.17914,0.37207 0.43408,0.65456 0.25493,0.27561 0.63389,0.44787 0.38586,0.17225 0.84061,0.17225 z m -1.77078,4.44417 -0.10335,-1.04042 h 1.40559 q 0.58567,0 1.01975,-0.0827 0.43408,-0.0827 0.72347,-0.27561 0.28939,-0.18603 0.46853,-0.4203 0.17915,-0.22737 0.26872,-0.59944 0.0965,-0.36518 0.12403,-0.73036 0.0344,-0.35829 0.0344,-0.88195 v -0.66835 q -0.41342,0.59256 -0.95774,0.9164 -0.54432,0.31695 -1.38493,0.31695 -0.64767,0 -1.19889,-0.22049 -0.54432,-0.22738 -0.92328,-0.59945 -0.37207,-0.37207 -0.64079,-0.86127 -0.26183,-0.4892 -0.38585,-1.01286 -0.11714,-0.52365 -0.11714,-1.05419 0,-0.82683 0.19982,-1.52963 0.20671,-0.70279 0.60634,-1.25401 0.39963,-0.55121 1.0473,-0.86127 0.65457,-0.31695 1.49518,-0.31695 0.74414,0 1.29535,0.28939 0.55811,0.28249 0.99908,0.87505 v -1.00597 h 1.1231 v 7.01421 q 0,0.48232 -0.0276,0.8406 -0.0207,0.36518 -0.11714,0.80616 -0.0896,0.44097 -0.24804,0.75792 -0.15848,0.31695 -0.44787,0.63389 -0.28249,0.32384 -0.68212,0.51677 -0.39274,0.19981 -0.97841,0.32384 -0.58567,0.12402 -1.32292,0.12402 z" />
      <path
         id="path33"
         style="font-style:normal;font-variant:normal;font-weight:normal;font-stretch:normal;font-size:14.1111px;font-family:oxygen;-inkscape-font-specification:oxygen;fill:#000080;fill-opacity:1;stroke:none;stroke-width:0.264583;stroke-opacity:1"
         d="m 133.95248,147.74199 q -1.10243,0 -1.56407,-0.59256 -0.45475,-0.59255 -0.45475,-2.06016 v -7.97884 l 1.14377,-0.0689 v 7.59299 q 0,0.46853 0.007,0.75103 0.0138,0.28249 0.0551,0.5581 0.0413,0.26872 0.11024,0.40652 0.0689,0.13781 0.19982,0.25494 0.13091,0.11024 0.31006,0.15158 0.18603,0.0345 0.45475,0.0345 0.22049,0 0.86816,-0.0827 l 0.062,0.9164 q -0.70969,0.11713 -1.19201,0.11713 z" />
      <path
         id="path35"
         style="font-style:normal;font-variant:normal;font-weight:normal;font-stretch:normal;font-size:14.1111px;font-family:oxygen;-inkscape-font-specification:oxygen;fill:#000080;fill-opacity:1;stroke:none;stroke-width:0.264583;stroke-opacity:1"
         d="m 137.19776,140.04565 v 7.55854 h -1.15755 v -7.55854 z m 0,-2.74918 v 1.36426 h -1.15755 v -1.36426 z" />
      <path
         id="path37"
         style="font-style:normal;font-variant:normal;font-weight:normal;font-stretch:normal;font-size:14.1111px;font-family:oxygen;-inkscape-font-specification:oxygen;fill:#000080;fill-opacity:1;stroke:none;stroke-width:0.264583;stroke-opacity:1"
         d="m 143.71588,141.44436 q -0.50298,-0.60634 -1.38493,-0.60634 -0.88194,0 -1.44004,0.62701 -0.55811,0.62012 -0.65457,1.70188 h 3.98942 q 0,-1.1231 -0.50988,-1.72255 z m -1.15755,6.3183 q -1.64675,0 -2.5976,-1.04731 -0.94395,-1.04731 -0.94395,-2.86631 0,-1.757 0.91639,-2.84565 0.91639,-1.09554 2.41156,-1.11621 1.4056,0 2.22553,0.96463 0.82683,0.95773 0.82683,2.56314 0,0.0827 -0.007,0.30317 0,0.22049 0,0.31695 h -5.18831 q 0.0207,1.28847 0.66146,2.01194 0.64767,0.71657 1.73632,0.71657 1.19889,0 2.40468,-0.63389 l 0.17914,0.93017 q -1.15066,0.7028 -2.62516,0.7028 z" />
      <path
         id="path39"
         style="font-style:normal;font-variant:normal;font-weight:normal;font-stretch:normal;font-size:14.1111px;font-family:oxygen;-inkscape-font-specification:oxygen;fill:#000080;fill-opacity:1;stroke:none;stroke-width:0.264583;stroke-opacity:1"
         d="m 150.38558,139.97675 q 0.31006,0 0.56499,0.0413 l -0.0413,1.06109 q -0.31695,-0.0551 -0.55121,-0.0551 -0.96463,0 -1.57096,0.67524 -0.59945,0.66835 -0.59945,1.66053 v 4.24436 h -1.15066 q -0.007,-6.95909 -0.007,-7.55854 h 0.95773 l 0.11025,1.35737 q 0.39274,-0.64079 0.99907,-1.03353 0.60634,-0.39274 1.28847,-0.39274 z" />
      <path
         id="path41"
         style="font-style:normal;font-variant:normal;font-weight:normal;font-stretch:normal;font-size:14.1111px;font-family:oxygen;-inkscape-font-specification:oxygen;fill:#000080;fill-opacity:1;stroke:none;stroke-width:0.264583;stroke-opacity:1"
         d="m 153.49305,140.04565 v 7.55854 h -1.15755 v -7.55854 z m 0,-2.74918 v 1.36426 h -1.15755 v -1.36426 z" />
      <path
         id="path43"
         style="font-style:normal;font-variant:normal;font-weight:normal;font-stretch:normal;font-size:7.05556px;font-family:oxygen;-inkscape-font-specification:oxygen;stroke-width:0.264583"
         d="m 55.986597,155.69344 q 0,-1.06798 -0.551215,-1.55374 -0.551216,-0.48576 -1.605416,-0.48576 h -0.799262 v 4.05488 h 0.89917 q 1.005969,0 1.529623,-0.50643 0.5271,-0.50987 0.5271,-1.50895 z m 0.637343,-0.0172 q 0,1.24368 -0.706245,1.89825 -0.706245,0.65457 -1.970595,0.65457 h -1.512398 v -5.0953 h 1.41249 q 0.637343,0 1.140327,0.15159 0.502984,0.14814 0.87161,0.45475 0.37207,0.30317 0.568441,0.79582 0.19637,0.4892 0.19637,1.14032 z" />
      <path
         id="path45"
         style="font-style:normal;font-variant:normal;font-weight:normal;font-stretch:normal;font-size:7.05556px;font-family:oxygen;-inkscape-font-specification:oxygen;stroke-width:0.264583"
         d="m 58.594536,157.84318 q 0.409967,0 0.720026,-0.22393 0.313504,-0.22738 0.403076,-0.60978 v -0.63735 q -0.01723,0 -0.210151,0.0172 -0.18948,0.0172 -0.248047,0.0207 -0.747586,0.0655 -1.043864,0.2446 -0.292834,0.17915 -0.292834,0.57533 0,0.30317 0.179145,0.4582 0.179145,0.15503 0.492649,0.15503 z m 1.250571,0.38585 q -0.05168,-0.22049 -0.09991,-0.47542 -0.313504,0.3135 -0.589112,0.43408 -0.275608,0.12058 -0.647678,0.12058 -0.530545,0 -0.854384,-0.27561 -0.320394,-0.27905 -0.320394,-0.79926 0,-0.57878 0.437527,-0.85783 0.440972,-0.27905 1.267796,-0.34796 0.113688,-0.0103 0.341065,-0.0276 0.230821,-0.0207 0.344509,-0.031 v -0.33418 q 0,-0.39963 -0.186035,-0.59255 -0.186035,-0.19293 -0.585667,-0.19293 -0.558105,0 -1.126546,0.27561 -0.01723,-0.0413 -0.08957,-0.23771 -0.07235,-0.19982 -0.07579,-0.20671 0.251492,-0.14125 0.596002,-0.22393 0.347955,-0.0861 0.706245,-0.0861 0.706245,0 1.016304,0.31006 0.313503,0.30661 0.313503,1.04731 v 2.50114 z" />
      <path
         id="path47"
         style="font-style:normal;font-variant:normal;font-weight:normal;font-stretch:normal;font-size:7.05556px;font-family:oxygen;-inkscape-font-specification:oxygen;stroke-width:0.264583"
         d="m 62.490942,158.29793 q -0.558106,0 -0.792372,-0.27216 -0.234267,-0.27216 -0.248047,-0.8785 v -2.27032 h -0.561551 l 0.02411,-0.37896 0.533991,-0.0482 0.19637,-0.86472 0.378961,-0.0138 v 0.8785 h 1.050755 v 0.42719 h -1.050755 v 2.16697 q 0,0.43063 0.130914,0.60633 0.130913,0.1757 0.447862,0.1757 0.113689,0 0.492649,-0.0551 l 0.02412,0.45476 q -0.409967,0.0723 -0.627008,0.0723 z" />
      <path
         id="path49"
         style="font-style:normal;font-variant:normal;font-weight:normal;font-stretch:normal;font-size:7.05556px;font-family:oxygen;-inkscape-font-specification:oxygen;stroke-width:0.264583"
         d="m 64.812937,157.84318 q 0.409967,0 0.720026,-0.22393 0.313504,-0.22738 0.403076,-0.60978 v -0.63735 q -0.01722,0 -0.210151,0.0172 -0.18948,0.0172 -0.248047,0.0207 -0.747586,0.0655 -1.043864,0.2446 -0.292834,0.17915 -0.292834,0.57533 0,0.30317 0.179145,0.4582 0.179145,0.15503 0.492649,0.15503 z m 1.250571,0.38585 q -0.05168,-0.22049 -0.09991,-0.47542 -0.313504,0.3135 -0.589112,0.43408 -0.275608,0.12058 -0.647678,0.12058 -0.530545,0 -0.854384,-0.27561 -0.320394,-0.27905 -0.320394,-0.79926 0,-0.57878 0.437527,-0.85783 0.440972,-0.27905 1.267796,-0.34796 0.113688,-0.0103 0.341065,-0.0276 0.230821,-0.0207 0.344509,-0.031 v -0.33418 q 0,-0.39963 -0.186035,-0.59255 -0.186035,-0.19293 -0.585667,-0.19293 -0.558105,0 -1.126547,0.27561 -0.01722,-0.0413 -0.08957,-0.23771 -0.07235,-0.19982 -0.07579,-0.20671 0.251492,-0.14125 0.596002,-0.22393 0.347955,-0.0861 0.706245,-0.0861 0.706245,0 1.016304,0.31006 0.313503,0.30661 0.313503,1.04731 v 2.50114 z" />
      <path
         id="path51"
         style="font-style:normal;font-variant:normal;font-weight:normal;font-stretch:normal;font-size:7.05556px;font-family:oxygen;-inkscape-font-specification:oxygen;stroke-width:0.264583"
         d="m 69.274339,157.38843 q 0.795818,0.39274 1.705323,0.39274 1.119657,0 1.119657,-1.01975 0,-0.33073 -0.179145,-0.53399 -0.1757,-0.20671 -0.644233,-0.32384 l -1.012859,-0.25494 q -1.160998,-0.29283 -1.160998,-1.24023 0,-0.72692 0.499539,-1.07832 0.499539,-0.35484 1.381484,-0.35484 0.461643,0 0.86472,0.0999 0.403076,0.0999 0.675239,0.26871 l -0.172255,0.48576 q -0.230821,-0.12747 -0.613227,-0.22737 -0.378961,-0.0999 -0.768257,-0.0999 -1.247125,0 -1.247125,0.86472 0,0.29283 0.18948,0.47198 0.192925,0.1757 0.575331,0.26871 l 0.968073,0.23427 q 0.620117,0.14814 0.940511,0.47542 0.320395,0.32384 0.320395,0.92329 0,0.77859 -0.478869,1.17478 -0.475424,0.39274 -1.295357,0.39274 -0.613227,0 -1.092096,-0.12403 -0.475423,-0.12746 -0.754476,-0.29972 z" />
      <path
         id="path53"
         style="font-style:normal;font-variant:normal;font-weight:normal;font-stretch:normal;font-size:7.05556px;font-family:oxygen;-inkscape-font-specification:oxygen;stroke-width:0.264583"
         d="m 75.089664,158.30827 q -0.833714,0 -1.305692,-0.54088 -0.468534,-0.54088 -0.468534,-1.41594 0.0034,-0.88194 0.478869,-1.42971 0.478869,-0.55122 1.309137,-0.55122 0.292833,0 0.564996,0.0724 0.275608,0.0724 0.434082,0.18948 l -0.158474,0.44786 q -0.403077,-0.21704 -0.850939,-0.21704 -0.547771,0 -0.868165,0.39963 -0.316949,0.39963 -0.316949,1.0921 0,0.67524 0.313504,1.07142 0.316949,0.39274 0.875055,0.39274 0.444417,0 0.909506,-0.24115 l 0.07235,0.4582 q -0.375516,0.27216 -0.988743,0.27216 z" />
      <path
         id="path55"
         style="font-style:normal;font-variant:normal;font-weight:normal;font-stretch:normal;font-size:7.05556px;font-family:oxygen;-inkscape-font-specification:oxygen;stroke-width:0.264583"
         d="m 77.504677,154.44976 v 3.77927 H 76.9259 v -3.77927 z m 0,-1.37459 v 0.68212 H 76.9259 v -0.68212 z" />
      <path
         id="path57"
         style="font-style:normal;font-variant:normal;font-weight:normal;font-stretch:normal;font-size:7.05556px;font-family:oxygen;-inkscape-font-specification:oxygen;stroke-width:0.264583"
         d="m 80.763739,155.14911 q -0.251492,-0.30316 -0.692465,-0.30316 -0.440972,0 -0.720025,0.3135 -0.279053,0.31006 -0.327284,0.85094 h 1.994711 q 0,-0.56155 -0.254937,-0.86128 z m -0.578777,3.15916 q -0.823378,0 -1.298801,-0.52366 -0.471979,-0.52365 -0.471979,-1.43316 0,-0.8785 0.458198,-1.42282 0.458198,-0.54777 1.205784,-0.55811 0.7028,0 1.112767,0.48232 0.413412,0.47886 0.413412,1.28157 0,0.0413 -0.0034,0.15159 0,0.11024 0,0.15847 h -2.594159 q 0.01033,0.64423 0.330729,1.00597 0.32384,0.35829 0.868165,0.35829 0.599447,0 1.202339,-0.31695 l 0.08957,0.46509 q -0.575332,0.3514 -1.312583,0.3514 z" />
      <path
         id="path59"
         style="font-style:normal;font-variant:normal;font-weight:normal;font-stretch:normal;font-size:7.05556px;font-family:oxygen;-inkscape-font-specification:oxygen;stroke-width:0.264583"
         d="m 82.403606,158.22903 v -3.77927 h 0.482314 l 0.07235,0.54088 q 0.223931,-0.27905 0.558106,-0.44786 0.337619,-0.17226 0.726915,-0.17226 0.654569,0 0.968073,0.36863 0.313504,0.36518 0.313504,1.12654 v 2.36334 h -0.575331 q 0,-2.27376 -0.0034,-2.43568 -0.01378,-0.48232 -0.19637,-0.70625 -0.179145,-0.22393 -0.602892,-0.22393 -0.444418,0 -0.740696,0.2136 -0.296279,0.21359 -0.385851,0.55466 -0.03445,0.23082 -0.03445,0.53054 v 2.06706 z" />
      <path
         id="path61"
         style="font-style:normal;font-variant:normal;font-weight:normal;font-stretch:normal;font-size:7.05556px;font-family:oxygen;-inkscape-font-specification:oxygen;stroke-width:0.264583"
         d="m 88.081126,158.30827 q -0.833713,0 -1.305692,-0.54088 -0.468533,-0.54088 -0.468533,-1.41594 0.0034,-0.88194 0.478869,-1.42971 0.478868,-0.55122 1.309137,-0.55122 0.292833,0 0.564996,0.0724 0.275608,0.0724 0.434082,0.18948 l -0.158474,0.44786 q -0.403077,-0.21704 -0.85094,-0.21704 -0.54777,0 -0.868164,0.39963 -0.316949,0.39963 -0.316949,1.0921 0,0.67524 0.313504,1.07142 0.316949,0.39274 0.875055,0.39274 0.444417,0 0.909505,-0.24115 l 0.07235,0.4582 q -0.375515,0.27216 -0.988743,0.27216 z" />
      <path
         id="path63"
         style="font-style:normal;font-variant:normal;font-weight:normal;font-stretch:normal;font-size:7.05556px;font-family:oxygen;-inkscape-font-specification:oxygen;stroke-width:0.264583"
         d="m 91.994757,155.14911 q -0.251492,-0.30316 -0.692465,-0.30316 -0.440972,0 -0.720025,0.3135 -0.279053,0.31006 -0.327284,0.85094 h 1.994711 q 0,-0.56155 -0.254937,-0.86128 z m -0.578776,3.15916 q -0.823379,0 -1.298802,-0.52366 -0.471979,-0.52365 -0.471979,-1.43316 0,-0.8785 0.458198,-1.42282 0.458198,-0.54777 1.205784,-0.55811 0.7028,0 1.112767,0.48232 0.413412,0.47886 0.413412,1.28157 0,0.0413 -0.0034,0.15159 0,0.11024 0,0.15847 h -2.594159 q 0.01033,0.64423 0.330729,1.00597 0.32384,0.35829 0.868165,0.35829 0.599447,0 1.202339,-0.31695 l 0.08957,0.46509 q -0.575332,0.3514 -1.312582,0.3514 z" />
      <path
         id="path65"
         style="font-style:normal;font-variant:normal;font-weight:normal;font-stretch:normal;font-size:7.05556px;font-family:oxygen;-inkscape-font-specification:oxygen;stroke-width:0.264583"
         d="m 96.421708,155.33859 q -0.320394,-0.34795 -0.458198,-0.58222 -0.137804,-0.23426 -0.137804,-0.54088 0,-0.51332 0.361735,-0.81304 0.365181,-0.30317 0.978408,-0.30317 0.361735,0 0.658014,0.11369 0.299723,0.11024 0.489204,0.35829 0.192925,0.2446 0.192925,0.58567 0,0.22048 -0.08957,0.41685 -0.08613,0.19293 -0.254938,0.3514 -0.165364,0.15848 -0.36518,0.28595 -0.19637,0.12746 -0.458198,0.24804 l 1.381484,1.47795 q 0.275608,-0.28939 0.489204,-0.7717 l 0.416857,0.31695 q -0.213596,0.46853 -0.547771,0.86127 l 0.623563,0.74414 q -0.254937,0.0965 -0.54088,0.17915 l -0.468533,-0.53055 q -0.709691,0.57189 -1.653647,0.57189 -0.87161,0 -1.326363,-0.37896 -0.451308,-0.38241 -0.451308,-1.06109 0,-0.5271 0.296279,-0.88539 0.299723,-0.35829 0.864719,-0.64424 z m 0.354845,0.3893 q -0.434082,0.22049 -0.671794,0.48231 -0.234266,0.26183 -0.234266,0.62012 0,0.44442 0.316948,0.69591 0.316949,0.24805 0.881946,0.24805 0.675239,0 1.226454,-0.43753 -0.254937,-0.27561 -0.761366,-0.80615 -0.502985,-0.53055 -0.757922,-0.80271 z m 0.399632,-2.13252 q -0.320395,0 -0.51332,0.16537 -0.192925,0.16192 -0.192925,0.45475 0,0.23427 0.124023,0.43064 0.127469,0.19293 0.392741,0.44786 0.210151,-0.10335 0.33762,-0.17914 0.130913,-0.0758 0.268717,-0.18604 0.137804,-0.11369 0.199816,-0.2446 0.06546,-0.13091 0.06546,-0.28939 0,-0.28594 -0.196371,-0.44097 -0.19637,-0.15848 -0.485758,-0.15848 z" />
      <path
         id="path67"
         style="font-style:normal;font-variant:normal;font-weight:normal;font-stretch:normal;font-size:7.05556px;font-family:oxygen;-inkscape-font-specification:oxygen;stroke-width:0.264583"
         d="m 104.58314,157.91553 -1.56407,-3.63803 -0.13091,-0.34795 0.0241,1.24712 v 3.05236 h -0.5581 v -5.0953 h 0.7717 l 1.77422,4.05833 1.757,-4.05833 h 0.75103 v 5.0953 h -0.57877 v -3.06614 l 0.0241,-1.21956 -0.12746,0.34795 -1.56063,3.62425 z" />
      <path
         id="path69"
         style="font-style:normal;font-variant:normal;font-weight:normal;font-stretch:normal;font-size:7.05556px;font-family:oxygen;-inkscape-font-specification:oxygen;stroke-width:0.264583"
         d="m 109.59576,157.84318 q 0.40997,0 0.72003,-0.22393 0.3135,-0.22738 0.40307,-0.60978 v -0.63735 q -0.0172,0 -0.21015,0.0172 -0.18948,0.0172 -0.24804,0.0207 -0.74759,0.0655 -1.04387,0.2446 -0.29283,0.17915 -0.29283,0.57533 0,0.30317 0.17914,0.4582 0.17915,0.15503 0.49265,0.15503 z m 1.25057,0.38585 q -0.0517,-0.22049 -0.0999,-0.47542 -0.3135,0.3135 -0.58911,0.43408 -0.27561,0.12058 -0.64768,0.12058 -0.53054,0 -0.85438,-0.27561 -0.32039,-0.27905 -0.32039,-0.79926 0,-0.57878 0.43752,-0.85783 0.44098,-0.27905 1.2678,-0.34796 0.11369,-0.0103 0.34106,-0.0276 0.23083,-0.0207 0.34451,-0.031 v -0.33418 q 0,-0.39963 -0.18603,-0.59255 -0.18604,-0.19293 -0.58567,-0.19293 -0.5581,0 -1.12654,0.27561 -0.0172,-0.0413 -0.0896,-0.23771 -0.0723,-0.19982 -0.0758,-0.20671 0.25149,-0.14125 0.596,-0.22393 0.34796,-0.0861 0.70625,-0.0861 0.70624,0 1.0163,0.31006 0.3135,0.30661 0.3135,1.04731 v 2.50114 z" />
      <path
         id="path71"
         style="font-style:normal;font-variant:normal;font-weight:normal;font-stretch:normal;font-size:7.05556px;font-family:oxygen;-inkscape-font-specification:oxygen;stroke-width:0.264583"
         d="m 113.88491,158.30827 q -0.83371,0 -1.30569,-0.54088 -0.46854,-0.54088 -0.46854,-1.41594 0.003,-0.88194 0.47887,-1.42971 0.47887,-0.55122 1.30914,-0.55122 0.29283,0 0.565,0.0724 0.2756,0.0724 0.43408,0.18948 l -0.15848,0.44786 q -0.40307,-0.21704 -0.85094,-0.21704 -0.54777,0 -0.86816,0.39963 -0.31695,0.39963 -0.31695,1.0921 0,0.67524 0.31351,1.07142 0.31694,0.39274 0.87505,0.39274 0.44442,0 0.90951,-0.24115 l 0.0723,0.4582 q -0.37551,0.27216 -0.98874,0.27216 z" />
      <path
         id="path73"
         style="font-style:normal;font-variant:normal;font-weight:normal;font-stretch:normal;font-size:7.05556px;font-family:oxygen;-inkscape-font-specification:oxygen;stroke-width:0.264583"
         d="m 118.16717,158.22903 v -2.2841 q 0,-0.56844 -0.18259,-0.82682 -0.17915,-0.25838 -0.63046,-0.25838 -0.43408,0 -0.7338,0.21704 -0.29628,0.21704 -0.38585,0.56155 -0.031,0.25838 -0.031,0.57533 v 2.01538 h -0.57533 v -5.24688 l 0.57533,-0.0344 v 1.53651 q 0,0.19637 -0.0138,0.48576 0.48576,-0.59945 1.28847,-0.59945 1.26435,0 1.26435,1.48484 v 2.37367 z" />
      <path
         id="path75"
         style="font-style:normal;font-variant:normal;font-weight:normal;font-stretch:normal;font-size:7.05556px;font-family:oxygen;-inkscape-font-specification:oxygen;stroke-width:0.264583"
         d="m 120.13087,154.44976 v 3.77927 h -0.57878 v -3.77927 z m 0,-1.37459 v 0.68212 h -0.57878 v -0.68212 z" />
      <path
         id="path77"
         style="font-style:normal;font-variant:normal;font-weight:normal;font-stretch:normal;font-size:7.05556px;font-family:oxygen;-inkscape-font-specification:oxygen;stroke-width:0.264583"
         d="m 121.21263,158.22903 v -3.77927 h 0.48231 l 0.0724,0.54088 q 0.22393,-0.27905 0.55811,-0.44786 0.33762,-0.17226 0.72691,-0.17226 0.65457,0 0.96808,0.36863 0.3135,0.36518 0.3135,1.12654 v 2.36334 h -0.57533 q 0,-2.27376 -0.003,-2.43568 -0.0138,-0.48232 -0.19637,-0.70625 -0.17914,-0.22393 -0.60289,-0.22393 -0.44442,0 -0.7407,0.2136 -0.29627,0.21359 -0.38585,0.55466 -0.0345,0.23082 -0.0345,0.53054 v 2.06706 z" />
      <path
         id="path79"
         style="font-style:normal;font-variant:normal;font-weight:normal;font-stretch:normal;font-size:7.05556px;font-family:oxygen;-inkscape-font-specification:oxygen;stroke-width:0.264583"
         d="m 127.46893,155.14911 q -0.25149,-0.30316 -0.69247,-0.30316 -0.44097,0 -0.72002,0.3135 -0.27906,0.31006 -0.32729,0.85094 h 1.99471 q 0,-0.56155 -0.25493,-0.86128 z m -0.57878,3.15916 q -0.82338,0 -1.2988,-0.52366 -0.47198,-0.52365 -0.47198,-1.43316 0,-0.8785 0.4582,-1.42282 0.4582,-0.54777 1.20578,-0.55811 0.7028,0 1.11277,0.48232 0.41341,0.47886 0.41341,1.28157 0,0.0413 -0.003,0.15159 0,0.11024 0,0.15847 h -2.59416 q 0.0103,0.64423 0.33073,1.00597 0.32384,0.35829 0.86816,0.35829 0.59945,0 1.20234,-0.31695 l 0.0896,0.46509 q -0.57533,0.3514 -1.31258,0.3514 z" />
      <path
         id="path81"
         style="font-style:normal;font-variant:normal;font-weight:normal;font-stretch:normal;font-size:7.05556px;font-family:oxygen;-inkscape-font-specification:oxygen;stroke-width:0.264583"
         d="m 130.97604,158.22903 v -5.0953 h 0.59944 v 4.56476 h 2.24276 l -0.0207,0.53054 z" />
      <path
         id="path83"
         style="font-style:normal;font-variant:normal;font-weight:normal;font-stretch:normal;font-size:7.05556px;font-family:oxygen;-inkscape-font-specification:oxygen;stroke-width:0.264583"
         d="m 136.56399,155.14911 q -0.25149,-0.30316 -0.69246,-0.30316 -0.44098,0 -0.72003,0.3135 -0.27905,0.31006 -0.32728,0.85094 h 1.99471 q 0,-0.56155 -0.25494,-0.86128 z m -0.57878,3.15916 q -0.82337,0 -1.2988,-0.52366 -0.47198,-0.52365 -0.47198,-1.43316 0,-0.8785 0.4582,-1.42282 0.4582,-0.54777 1.20579,-0.55811 0.7028,0 1.11276,0.48232 0.41341,0.47886 0.41341,1.28157 0,0.0413 -0.003,0.15159 0,0.11024 0,0.15847 h -2.59416 q 0.0103,0.64423 0.33073,1.00597 0.32384,0.35829 0.86816,0.35829 0.59945,0 1.20234,-0.31695 l 0.0896,0.46509 q -0.57534,0.3514 -1.31259,0.3514 z" />
      <path
         id="path85"
         style="font-style:normal;font-variant:normal;font-weight:normal;font-stretch:normal;font-size:7.05556px;font-family:oxygen;-inkscape-font-specification:oxygen;stroke-width:0.264583"
         d="m 139.25461,157.84318 q 0.40997,0 0.72003,-0.22393 0.3135,-0.22738 0.40307,-0.60978 v -0.63735 q -0.0172,0 -0.21015,0.0172 -0.18948,0.0172 -0.24805,0.0207 -0.74758,0.0655 -1.04386,0.2446 -0.29283,0.17915 -0.29283,0.57533 0,0.30317 0.17914,0.4582 0.17915,0.15503 0.49265,0.15503 z m 1.25057,0.38585 q -0.0517,-0.22049 -0.0999,-0.47542 -0.3135,0.3135 -0.58911,0.43408 -0.27561,0.12058 -0.64768,0.12058 -0.53054,0 -0.85438,-0.27561 -0.3204,-0.27905 -0.3204,-0.79926 0,-0.57878 0.43753,-0.85783 0.44097,-0.27905 1.2678,-0.34796 0.11369,-0.0103 0.34106,-0.0276 0.23082,-0.0207 0.34451,-0.031 v -0.33418 q 0,-0.39963 -0.18603,-0.59255 -0.18604,-0.19293 -0.58567,-0.19293 -0.55811,0 -1.12655,0.27561 -0.0172,-0.0413 -0.0896,-0.23771 -0.0724,-0.19982 -0.0758,-0.20671 0.25149,-0.14125 0.596,-0.22393 0.34795,-0.0861 0.70625,-0.0861 0.70624,0 1.0163,0.31006 0.3135,0.30661 0.3135,1.04731 v 2.50114 z" />
      <path
         id="path87"
         style="font-style:normal;font-variant:normal;font-weight:normal;font-stretch:normal;font-size:7.05556px;font-family:oxygen;-inkscape-font-specification:oxygen;stroke-width:0.264583"
         d="m 143.64022,154.41531 q 0.15503,0 0.28249,0.0207 l -0.0207,0.53054 q -0.15847,-0.0276 -0.2756,-0.0276 -0.48232,0 -0.78549,0.33762 -0.29972,0.33418 -0.29972,0.83027 v 2.12218 h -0.57533 q -0.003,-3.47955 -0.003,-3.77927 h 0.47887 l 0.0551,0.67868 q 0.19637,-0.32039 0.49954,-0.51676 0.30317,-0.19637 0.64424,-0.19637 z" />
      <path
         id="path89"
         style="font-style:normal;font-variant:normal;font-weight:normal;font-stretch:normal;font-size:7.05556px;font-family:oxygen;-inkscape-font-specification:oxygen;stroke-width:0.264583"
         d="m 144.51527,158.22903 v -3.77927 h 0.48232 l 0.0723,0.54088 q 0.22394,-0.27905 0.55811,-0.44786 0.33762,-0.17226 0.72692,-0.17226 0.65456,0 0.96807,0.36863 0.3135,0.36518 0.3135,1.12654 v 2.36334 h -0.57533 q 0,-2.27376 -0.003,-2.43568 -0.0138,-0.48232 -0.19637,-0.70625 -0.17915,-0.22393 -0.6029,-0.22393 -0.44441,0 -0.74069,0.2136 -0.29628,0.21359 -0.38585,0.55466 -0.0344,0.23082 -0.0344,0.53054 v 2.06706 z" />
      <path
         id="path91"
         style="font-style:normal;font-variant:normal;font-weight:normal;font-stretch:normal;font-size:7.05556px;font-family:oxygen;-inkscape-font-specification:oxygen;stroke-width:0.264583"
         d="m 149.27295,154.44976 v 3.77927 h -0.57877 v -3.77927 z m 0,-1.37459 v 0.68212 h -0.57877 v -0.68212 z" />
      <path
         id="path93"
         style="font-style:normal;font-variant:normal;font-weight:normal;font-stretch:normal;font-size:7.05556px;font-family:oxygen;-inkscape-font-specification:oxygen;stroke-width:0.264583"
         d="m 150.35471,158.22903 v -3.77927 h 0.48232 l 0.0723,0.54088 q 0.22394,-0.27905 0.55811,-0.44786 0.33762,-0.17226 0.72692,-0.17226 0.65456,0 0.96807,0.36863 0.3135,0.36518 0.3135,1.12654 v 2.36334 h -0.57533 q 0,-2.27376 -0.003,-2.43568 -0.0138,-0.48232 -0.19638,-0.70625 -0.17914,-0.22393 -0.60289,-0.22393 -0.44441,0 -0.74069,0.2136 -0.29628,0.21359 -0.38585,0.55466 -0.0345,0.23082 -0.0345,0.53054 v 2.06706 z" />
      <path
         id="path95"
         style="font-style:normal;font-variant:normal;font-weight:normal;font-stretch:normal;font-size:7.05556px;font-family:oxygen;-inkscape-font-specification:oxygen;stroke-width:0.264583"
         d="m 155.90132,157.73638 q 0.29283,0 0.51332,-0.10335 0.22049,-0.10335 0.34451,-0.28594 0.12402,-0.18259 0.18259,-0.40653 0.062,-0.22393 0.062,-0.4892 v -0.27905 q 0,-0.27561 -0.062,-0.50643 -0.062,-0.23427 -0.19293,-0.41686 -0.12746,-0.18603 -0.34451,-0.28939 -0.21359,-0.10335 -0.49954,-0.10335 -0.23771,0 -0.43408,0.0896 -0.19292,0.0896 -0.32039,0.23771 -0.12403,0.1447 -0.2136,0.34107 -0.0861,0.19293 -0.12402,0.39274 -0.0379,0.19982 -0.0379,0.40308 0,0.19981 0.0413,0.39618 0.0413,0.19637 0.13092,0.38241 0.0896,0.18603 0.21704,0.32728 0.12747,0.13781 0.31695,0.22393 0.19292,0.0861 0.4203,0.0861 z m -0.88539,2.22209 -0.0517,-0.52021 h 0.7028 q 0.29284,0 0.50988,-0.0413 0.21704,-0.0413 0.36173,-0.1378 0.1447,-0.093 0.23427,-0.21016 0.0896,-0.11368 0.13436,-0.29972 0.0482,-0.18259 0.062,-0.36518 0.0172,-0.17914 0.0172,-0.44097 v -0.33418 q -0.20671,0.29628 -0.47887,0.4582 -0.27217,0.15848 -0.69247,0.15848 -0.32384,0 -0.59944,-0.11025 -0.27217,-0.11369 -0.46165,-0.29972 -0.18603,-0.18604 -0.32039,-0.43064 -0.13092,-0.2446 -0.19293,-0.50643 -0.0586,-0.26182 -0.0586,-0.5271 0,-0.41341 0.0999,-0.76481 0.10336,-0.3514 0.30317,-0.62701 0.19982,-0.2756 0.52366,-0.43063 0.32728,-0.15848 0.74758,-0.15848 0.37207,0 0.64768,0.1447 0.27905,0.14124 0.49954,0.43752 v -0.50298 h 0.56155 v 3.50711 q 0,0.24116 -0.0138,0.4203 -0.0103,0.18259 -0.0586,0.40308 -0.0448,0.22048 -0.12402,0.37896 -0.0792,0.15847 -0.22393,0.31695 -0.14125,0.16192 -0.34106,0.25838 -0.19638,0.0999 -0.48921,0.16192 -0.29283,0.062 -0.66146,0.062 z" />
    </g>
  </g>
</svg>
