<?xml version="1.0" encoding="UTF-8" standalone="no"?>
<svg
   xmlns:dc="http://purl.org/dc/elements/1.1/"
   xmlns:cc="http://creativecommons.org/ns#"
   xmlns:rdf="http://www.w3.org/1999/02/22-rdf-syntax-ns#"
   xmlns:svg="http://www.w3.org/2000/svg"
   xmlns="http://www.w3.org/2000/svg"
   xmlns:sodipodi="http://sodipodi.sourceforge.net/DTD/sodipodi-0.dtd"
   xmlns:inkscape="http://www.inkscape.org/namespaces/inkscape"
   inkscape:version="1.0 (4035a4fb49, 2020-05-01)"
   sodipodi:docname="new-icon-linkedin-color.svg"
   xml:space="preserve"
   style="enable-background:new 0 0 512 512;"
   viewBox="0 0 512 512"
   y="0px"
   x="0px"
   id="Capa_1"
   version="1.1"><metadata
   id="metadata43"><rdf:RDF><cc:Work
       rdf:about=""><dc:format>image/svg+xml</dc:format><dc:type
         rdf:resource="http://purl.org/dc/dcmitype/StillImage" /><dc:title></dc:title></cc:Work></rdf:RDF></metadata><defs
   id="defs41" /><sodipodi:namedview
   inkscape:current-layer="Capa_1"
   inkscape:window-maximized="1"
   inkscape:window-y="45"
   inkscape:window-x="0"
   inkscape:cy="256"
   inkscape:cx="16"
   inkscape:zoom="0.515625"
   showgrid="false"
   id="namedview39"
   inkscape:window-height="686"
   inkscape:window-width="1366"
   inkscape:pageshadow="2"
   inkscape:pageopacity="0"
   guidetolerance="10"
   gridtolerance="10"
   objecttolerance="10"
   borderopacity="1"
   bordercolor="#666666"
   pagecolor="#ffffff"
   inkscape:document-rotation="0" />
<g
   style="fill:#0e76a8;fill-opacity:1"
   id="g6">
	<g
   style="fill:#0e76a8;fill-opacity:1"
   id="g4">
		<path
   style="fill:#0e76a8;fill-opacity:1"
   id="path2"
   d="M432,0H80C35.888,0,0,35.888,0,80v352c0,44.112,35.888,80,80,80h352c44.112,0,80-35.888,80-80V80    C512,35.888,476.112,0,432,0z M472,432c0,22.056-17.944,40-40,40H80c-22.056,0-40-17.944-40-40V80c0-22.056,17.944-40,40-40h352    c22.056,0,40,17.944,40,40V432z" />
	</g>
</g>
<g
   style="fill:#0e76a8;fill-opacity:1"
   id="g8">
</g>
<g
   style="fill:#0e76a8;fill-opacity:1"
   id="g10">
</g>
<g
   style="fill:#0e76a8;fill-opacity:1"
   id="g12">
</g>
<g
   style="fill:#0e76a8;fill-opacity:1"
   id="g14">
</g>
<g
   style="fill:#0e76a8;fill-opacity:1"
   id="g16">
</g>
<g
   style="fill:#0e76a8;fill-opacity:1"
   id="g18">
</g>
<g
   style="fill:#0e76a8;fill-opacity:1"
   id="g20">
</g>
<g
   style="fill:#0e76a8;fill-opacity:1"
   id="g22">
</g>
<g
   style="fill:#0e76a8;fill-opacity:1"
   id="g24">
</g>
<g
   style="fill:#0e76a8;fill-opacity:1"
   id="g26">
</g>
<g
   style="fill:#0e76a8;fill-opacity:1"
   id="g28">
</g>
<g
   style="fill:#0e76a8;fill-opacity:1"
   id="g30">
</g>
<g
   style="fill:#0e76a8;fill-opacity:1"
   id="g32">
</g>
<g
   style="fill:#0e76a8;fill-opacity:1"
   id="g34">
</g>
<g
   style="fill:#0e76a8;fill-opacity:1"
   id="g36">
</g>
<g
   style="fill:#0e76a8;fill-opacity:1"
   transform="matrix(12.8,0,0,12.8,102.4,102.4)"
   id="g1445"><path
     style="fill:#0e76a8;fill-opacity:1"
     id="path45"
     d="M 23.994,24 V 23.999 H 24 v -8.802 c 0,-4.306 -0.927,-7.623 -5.961,-7.623 -2.42,0 -4.044,1.328 -4.707,2.587 h -0.07 V 7.976 H 8.489 v 16.023 h 4.97 v -7.934 c 0,-2.089 0.396,-4.109 2.983,-4.109 2.549,0 2.587,2.384 2.587,4.243 V 24 Z" /><path
     style="fill:#0e76a8;fill-opacity:1"
     id="path47"
     d="M 0.396,7.977 H 5.372 V 24 H 0.396 Z" /><path
     style="fill:#0e76a8;fill-opacity:1"
     id="path49"
     d="M 2.882,0 C 1.291,0 0,1.291 0,2.882 0,4.473 1.291,5.791 2.882,5.791 4.473,5.791 5.764,4.473 5.764,2.882 5.763,1.291 4.472,0 2.882,0 Z" /></g></svg>
